<?xml version="1.0" encoding="UTF-8" standalone="no"?>
<!-- Created with Inkscape (http://www.inkscape.org/) -->

<svg
   xmlns:dc="http://purl.org/dc/elements/1.1/"
   xmlns:cc="http://creativecommons.org/ns#"
   xmlns:rdf="http://www.w3.org/1999/02/22-rdf-syntax-ns#"
   xmlns:svg="http://www.w3.org/2000/svg"
   xmlns="http://www.w3.org/2000/svg"
   version="1.1"
   width="1100.0007"
   height="954.54877"
   id="svg2">
  <metadata
     id="metadata8">
    <rdf:RDF>
      <cc:Work
         rdf:about="">
        <dc:format>image/svg+xml</dc:format>
        <dc:type
           rdf:resource="http://purl.org/dc/dcmitype/StillImage" />
        <dc:title></dc:title>
      </cc:Work>
    </rdf:RDF>
  </metadata>
  <defs
     id="defs6" />
  <path
     d="m 256.9192,703.27425 c -0.7609,-1.16133 -0.7501,-1.527 0.1218,-4.11783 0.586,-1.74106 1.2972,-2.88974 1.8347,-2.96313 0.701,-0.0957 0.8005,0.16621 0.4937,1.2998 -0.2112,0.78077 -0.1989,2.24922 0.027,3.26324 0.412,1.84634 -0.1714,3.79243 -1.137,3.79243 -0.2781,0 -0.8813,-0.57354 -1.3406,-1.27451 z m -33.5902,-3.78267 c -0.1574,-0.15742 -0.8545,-0.373 -1.5492,-0.47895 -0.785,-0.11988 -1.3275,-0.61622 -1.4337,-1.31197 -0.202,-1.32378 1.4663,-5.53301 1.8083,-4.56255 0.1643,0.46616 0.5237,0.51221 1.1947,0.15313 1.3078,-0.69995 1.6376,-0.21924 1.6376,2.38769 0,2.08868 -1.0248,4.44556 -1.6577,3.81265 z m 24.2418,-1.5915 c 0.046,-1.3044 2.0072,-5.78819 2.0674,-4.72598 0.022,0.38647 0.2543,0.57012 0.5165,0.40806 0.7774,-0.48052 0.994,2.74492 0.2747,4.09004 -0.8739,1.63393 -2.9137,1.79653 -2.8586,0.22788 z m 26.7584,-7.08736 c -0.8562,-1.03164 -0.1885,-3.25552 1.0768,-3.58643 1.3761,-0.35986 1.6472,-0.0225 1.6472,2.05137 0,1.93311 -1.6309,2.85215 -2.724,1.53506 z m -1.4199,-14.18867 c -0.6554,-0.26265 -1.3409,-1.07247 -1.5234,-1.79957 -0.1825,-0.7271 -1.1319,-2.05009 -2.1099,-2.93999 -1.7478,-1.59048 -1.7833,-1.59804 -2.0923,-0.44575 -0.1729,0.64478 -0.3177,1.82227 -0.3217,2.6167 -0.01,1.54136 -0.7859,2.41939 -1.3439,1.51655 -0.1854,-0.30004 -0.6248,-0.54179 -0.9764,-0.5373 -0.3841,0.005 -0.318,0.21587 0.1658,0.52856 0.7158,0.4625 0.7158,0.51871 0,0.50586 -1.2556,-0.0225 -3.0229,-3.27861 -3.425,-6.3104 -0.3766,-2.83887 0.01,-3.64185 2.4985,-5.19922 0.4719,-0.29521 0.9338,-1.14062 1.0264,-1.87871 0.2106,-1.677 -1.4274,-1.89898 -3.1053,-0.4208 -0.9128,0.80405 -1.4028,0.88765 -2.5803,0.43989 -1.0867,-0.41308 -1.3559,-0.39448 -1.0665,0.0738 0.2722,0.44043 0.082,0.50195 -0.6403,0.20713 -2.0369,-0.8312 -2.6331,-0.61035 -2.8132,1.04194 -0.097,0.88565 -0.3849,1.82622 -0.6409,2.09024 -0.2652,0.27348 -0.3428,0.0107 -0.1803,-0.61045 0.1568,-0.59961 -0.019,-1.27793 -0.3897,-1.50728 -0.4752,-0.29375 -0.5734,-0.15288 -0.332,0.47622 0.1886,0.49126 0.1088,0.89317 -0.1771,0.89317 -0.286,0 -0.5199,-0.61143 -0.5199,-1.35874 0,-1.50303 -1.1055,-2.18892 -2.5497,-1.58189 -0.5166,0.21719 -1.4906,0.43247 -2.1643,0.47847 -1.0512,0.0718 -1.1817,-0.11328 -0.92,-1.30503 0.1678,-0.76377 0.8952,-2.5544 1.6165,-3.9792 0.7213,-1.42476 1.1989,-2.77271 1.0612,-2.99546 -0.1377,-0.22275 -0.3981,-1.33897 -0.5788,-2.48052 -0.1807,-1.14155 -0.4396,-2.25669 -0.5755,-2.47812 -0.3638,-0.59307 -3.2868,-0.48999 -3.6696,0.12944 -0.3219,0.52075 -3.921,-0.6604 -4.5467,-1.49219 -1.1519,-1.5311 -2.1141,-1.77803 -3.711,-0.9522 -2.1976,1.13643 -2.5029,1.08345 -4.4439,-0.77148 -0.9267,-0.88565 -2.1926,-1.61392 -2.8131,-1.61846 -1.8992,-0.0137 -5.7555,-1.35586 -5.3075,-1.84722 0.2321,-0.25449 0.01,-0.31352 -0.5032,-0.13115 -1.1418,0.40928 -1.9475,-0.87153 -1.6213,-2.57759 0.2849,-1.49072 2.6637,-3.84428 4.1568,-4.11289 0.8196,-0.14741 1.0998,-0.66357 1.1843,-2.18237 0.061,-1.09409 0.5102,-2.59898 0.9985,-3.34414 1.0964,-1.67339 0.6568,-3.83965 -0.878,-4.32681 -1.2755,-0.40479 -5.3306,1.99668 -5.3306,3.15684 0,0.85688 -1.8935,2.65927 -2.9578,2.81547 -1.3656,0.20044 -1.5322,-1.92544 -0.2572,-3.28256 1.2193,-1.29795 1.0654,-2.58082 -0.2492,-2.07637 -0.4103,0.15742 -1.1996,0.0435 -1.754,-0.25318 -0.8175,-0.43755 -1.3896,-0.17954 -3.027,1.36529 l -2.0189,1.90473 1.1999,1.27725 c 1.3746,1.46318 1.2793,1.49497 -2.0051,0.66792 -3.2775,-0.82529 -4.139,0 -2.0371,1.94527 1.2574,1.16533 1.3869,1.4996 0.74,1.90883 -1.3206,0.83526 -5.7264,0.62315 -6.0778,-0.29262 -0.1763,-0.45923 -0.9769,-0.80513 -1.8638,-0.80513 -0.8551,0 -2.1308,-0.44199 -2.8348,-0.98218 -1.8862,-1.44717 -3.1988,-1.7999 -4.0548,-1.08955 -1.2209,1.01333 -1.7894,-0.11558 -1.809,-3.59273 -0.034,-5.9686 0.261,-7.40449 2.0549,-10.00864 0.9556,-1.38726 1.9785,-2.67124 2.2731,-2.85332 0.935,-0.57783 0.3671,-3.52674 -0.8012,-4.16082 -1.6601,-0.90097 -5.6055,-1.59195 -8.6795,-1.52008 -2.0091,0.0472 -2.8428,-0.15577 -3.0696,-0.74654 -0.4269,-1.11266 -1.4166,-1.02367 -1.4267,0.1283 -0.013,1.50214 -0.8005,2.34675 -2.3462,2.51642 -1.6926,0.18577 -3.55,-1.80054 -3.55,-3.79657 0,-0.69822 -0.2415,-1.26951 -0.5368,-1.26951 -0.2952,0 -0.5367,0.36232 -0.5367,0.80515 0,0.44284 -0.3328,0.80516 -0.7394,0.80516 -0.4067,0 -1.0528,0.37756 -1.4358,0.83908 -0.6315,0.76092 -0.7402,0.76092 -1.166,0 -0.2583,-0.46152 -1.024,-0.83908 -1.7016,-0.83908 -0.6777,0 -1.6519,-0.46388 -2.165,-1.03081 -0.8894,-0.98283 -0.8817,-1.05819 0.1653,-1.61851 1.5524,-0.83084 0.8664,-2.07564 -1.4668,-2.66158 -6.1519,-1.5449 -10.9889,-1.09395 -12.893,1.20199 -0.6283,0.75754 -2.7523,1.28804 -2.7523,0.6874 0,-0.11049 0.3531,-1.20171 0.7847,-2.42492 0.8728,-2.47399 0.6229,-3.81886 -0.708,-3.80864 -1.1918,0.009 -5.5948,5.11578 -7.7327,8.96854 -2.1927,3.95126 -5.8229,8.6674 -6.7026,8.70754 -0.9202,0.042 -0.847,-0.46206 0.4066,-2.80099 0.5926,-1.10574 1.1891,-2.88169 1.3254,-3.94654 0.2668,-2.08373 1.5015,-3.37611 3.2516,-3.40349 0.656,-0.0102 1.4956,-0.71353 2.1029,-1.76157 0.556,-0.95947 1.5684,-2.42036 2.2498,-3.24642 0.6815,-0.82606 1.6347,-2.33572 2.1183,-3.3548 0.4836,-1.01909 1.053,-1.85289 1.2654,-1.85289 0.4896,0 0.6139,-0.92427 0.7939,-5.90445 0.08,-2.21418 0.4336,-5.21307 0.7857,-6.66423 0.3948,-1.6272 0.4455,-2.75872 0.1324,-2.95223 -0.9818,-0.60683 -0.8643,-1.06339 0.6926,-2.68838 0.8641,-0.90198 1.4428,-1.76833 1.2859,-1.92523 -0.1569,-0.15691 0.1108,-2.02974 0.5948,-4.16185 0.6741,-2.9693 1.1177,-3.92232 1.8953,-4.07209 1.4396,-0.27722 2.9339,-2.24855 2.9549,-3.89805 0.01,-0.77127 0.7425,-2.31415 1.6282,-3.42862 1.4326,-1.80279 1.8492,-2.65964 1.5006,-3.08642 -0.06,-0.0738 0.2733,-0.85883 0.7413,-1.7445 0.468,-0.88567 1.4231,-2.92336 2.1225,-4.52821 0.6994,-1.60485 1.9359,-3.83705 2.7477,-4.96047 0.8119,-1.1234 1.4761,-2.36952 1.4761,-2.76916 0,-0.39963 0.4832,-1.1638 1.0736,-1.69815 0.5905,-0.53434 1.0735,-1.21115 1.0735,-1.50402 0,-0.29287 0.8454,-1.5642 1.8787,-2.82518 1.0333,-1.26098 1.8787,-2.41388 1.8787,-2.562 0,-0.14811 1.219,-2.03883 2.7089,-4.20159 2.7662,-4.0155 3.0696,-5.57663 1.4134,-7.2747 -0.8682,-0.89022 -7.1665,0.56967 -8.7089,2.01866 -0.6153,0.578 -1.5356,1.05092 -2.0451,1.05092 -0.9704,0 -4.1037,2.07803 -4.1037,2.72155 0,0.20492 -1.9741,2.43914 -4.387,4.96494 -4.1324,4.3258 -6.9545,8.40541 -8.7928,12.71072 -0.4412,1.03329 -1.0343,2.24102 -1.3179,2.68385 -0.6524,1.01836 -2.2976,4.44577 -2.362,4.92039 -0.1198,0.88361 -0.956,1.15011 -1.3926,0.44378 -1.2245,-1.98136 1.3995,-9.09039 6.3711,-17.26005 0.6772,-1.11285 0.9743,-2.10282 0.6847,-2.2818 -0.8558,-0.52887 -0.048,-2.35194 1.1828,-2.67141 0.6364,-0.1651 1.7588,-1.21212 2.4942,-2.32673 0.7354,-1.1146 1.483,-2.14732 1.6612,-2.29493 0.1783,-0.14762 1.6297,-1.96571 3.2254,-4.04021 1.5957,-2.0745 3.2077,-4.12764 3.5823,-4.56253 2.0036,-2.3268 2.808,-3.41304 2.808,-3.79195 0,-0.23183 0.7247,-1.21488 1.6103,-2.18457 0.8857,-0.96968 1.6103,-1.96803 1.6103,-2.21855 0,-0.66812 1.1445,-1.64596 2.7646,-2.36207 0.9244,-0.4086 1.6561,-1.34636 2.0893,-2.67759 0.3666,-1.12681 0.9945,-2.5252 1.3953,-3.10753 0.9425,-1.3692 0.9213,-1.89345 -0.076,-1.89345 -0.4429,0 -0.8052,-0.13802 -0.8052,-0.30672 0,-0.1687 0.3623,-0.66905 0.8052,-1.11188 0.4952,-0.49524 0.8051,-1.81127 0.8051,-3.41898 0,-1.43761 0.2611,-2.77521 0.5803,-2.97245 0.3191,-0.19724 0.4377,-0.92647 0.2635,-1.62051 -0.3481,-1.38713 1.1366,-2.61462 2.5204,-2.08363 0.9359,0.35918 2.2342,-1.09747 1.7199,-1.92974 -0.4475,-0.724 -4.0922,-0.17489 -4.6316,0.69778 -0.2378,0.38477 -1.2462,0.19121 -3.0529,-0.58604 -1.4838,-0.63832 -3.1698,-1.16059 -3.7467,-1.16059 -1.38,0 -3.839,2.10988 -2.9088,2.49579 0.9415,0.39059 0.2804,1.26159 -0.9575,1.26159 -0.7504,0 -0.9322,0.25168 -0.6785,0.93935 0.1907,0.51664 0.5327,1.06649 0.76,1.22189 0.2274,0.15541 0.1988,0.62975 -0.063,1.05408 -0.3672,0.59402 -0.8237,0.65002 -1.9845,0.24342 -1.7899,-0.62694 -2.3718,-2.6931 -0.8682,-3.08268 0.7496,-0.19422 0.7763,-0.26571 0.1175,-0.31379 -1.5549,-0.11347 -2.5921,-4.35642 -1.065,-4.35642 0.2103,0 1.6658,-0.95753 3.2344,-2.12786 2.2415,-1.67236 3.06,-2.01654 3.8236,-1.60783 0.6511,0.3484 1.4247,0.31362 2.3443,-0.10539 1.9493,-0.88813 1.8919,-3.23247 -0.1035,-4.23079 -0.8118,-0.40618 -1.8909,-1.08111 -2.3978,-1.49985 -0.5069,-0.41873 -1.4119,-0.63312 -2.0111,-0.47644 -0.9817,0.25672 -1.0616,0.0908 -0.8078,-1.67727 0.1549,-1.0792 0.3422,-2.44527 0.4163,-3.03571 0.074,-0.59045 0.3297,-1.38605 0.568,-1.76801 0.2438,-0.39088 0.1577,-1.02651 -0.1971,-1.454 -0.5106,-0.6152 -0.3613,-0.82707 0.7858,-1.11496 2.1306,-0.53476 1.4896,-1.97597 -1.2677,-2.84991 -2.3284,-0.73801 -2.3394,-0.75295 -1.069,-1.45709 0.7061,-0.3913 1.7064,-0.72001 2.223,-0.73046 0.9677,-0.0196 1.363,-1.09257 0.4026,-1.09257 -0.2952,0 -0.5368,-0.24154 -0.5368,-0.53676 0,-0.29523 0.9662,-0.53677 2.1471,-0.53677 1.5702,0 2.1471,-0.22085 2.1471,-0.822 0,-1.05676 -1.0019,-1.42205 -4.1605,-1.51691 -3.4397,-0.1033 -3.3742,-1.29583 0.1347,-2.4511 4.5908,-1.51149 6.978,-2.90188 6.978,-4.06427 0,-1.48498 -5.0179,-2.31327 -6.0128,-0.99254 -0.3549,0.47101 -1.0191,0.7129 -1.4762,0.53753 -1.2178,-0.46734 -1.0149,0.58473 0.2426,1.25775 1.1254,0.60227 1.4862,2.14708 0.5015,2.14708 -1.2442,0 -2.7208,-1.18454 -2.428,-1.94774 0.1945,-0.50677 0.081,-0.65415 -0.315,-0.40934 -0.987,0.60998 -7.4203,0.68925 -7.4203,0.0914 0,-0.29318 -0.3624,-0.38643 -0.8052,-0.20724 -0.4428,0.1792 -1.1363,0.46048 -1.541,0.62507 -0.4048,0.16459 -1.1546,-0.11936 -1.6663,-0.63099 -0.752,-0.752 -1.1238,-0.80934 -1.9406,-0.29925 -0.5557,0.34704 -1.7987,0.61567 -2.7621,0.59696 -1.7006,-0.033 -1.7129,-0.0495 -0.4228,-0.56433 0.8675,-0.34616 1.1104,-0.66545 0.6993,-0.91949 -0.4136,-0.25562 -0.4581,-0.66062 -0.1295,-1.18017 0.8634,-1.36523 0.5746,-1.9831 -1.3548,-2.89864 -2.0216,-0.95932 -3.5676,-2.99165 -2.2758,-2.99165 0.3968,0 1.1871,-0.3405 1.7563,-0.75667 1.0123,-0.74025 1.013,-0.78082 0.028,-1.86862 -0.825,-0.91158 -0.8844,-1.25886 -0.3298,-1.92717 0.5278,-0.63588 0.5314,-0.81523 0.017,-0.81523 -0.3716,0 -0.5223,-0.35853 -0.3449,-0.82075 0.227,-0.59165 -0.1368,-0.91109 -1.3035,-1.14444 -1.9822,-0.39643 -2.9783,-1.92833 -1.8583,-2.85785 0.9426,-0.7823 4.3108,0.15741 5.004,1.39609 0.2613,0.46699 0.807,0.6459 1.3429,0.44026 0.4966,-0.19053 0.7693,-0.56245 0.6061,-0.8265 -0.1632,-0.26405 0.5855,-1.00066 1.6639,-1.6369 1.7466,-1.03054 1.9269,-1.33817 1.6518,-2.81846 l -0.3089,-1.66167 1.0622,1.26564 c 1.2497,1.48902 2.4708,1.22028 3.2027,-0.70486 0.3408,-0.89627 0.7861,-1.24008 1.3339,-1.02987 0.5916,0.22702 0.8302,-0.0394 0.8505,-0.9496 l 0.028,-1.26516 0.8424,1.20774 c 0.4634,0.66424 1.1629,1.20773 1.5545,1.20773 0.967,0 3.6221,-2.51489 3.037,-2.87655 -0.2571,-0.15885 -3.3487,-0.45525 -6.8704,-0.65866 -4.5878,-0.265 -6.9675,-0.65325 -8.3944,-1.36955 -1.0954,-0.54984 -2.3031,-1.00726 -2.6839,-1.01649 -0.3808,-0.009 -1.9001,-0.61089 -3.3762,-1.33701 -2.9156,-1.43423 -6.2539,-1.70766 -8.6876,-0.71159 -1.0488,0.4293 -9.3914,0.66545 -27.2759,0.77209 -24.3125,0.14497 -31.6732,0.53942 -34.0776,1.82618 -0.5009,0.2681 -2.0529,0.64234 -3.4488,0.83165 -3.2463,0.44026 -4.7488,-0.66347 -4.3081,-3.16481 0.7021,-3.98561 2.8523,-4.50103 16.0696,-3.85207 3.8379,0.18844 7.7269,0.57795 8.6423,0.86557 2.2655,0.71186 33.9988,0.68263 38.0566,-0.0351 1.7713,-0.3133 5.636,-0.70386 8.5883,-0.86793 4.6362,-0.25764 5.8066,-0.1398 8.5883,0.86469 7.5667,2.73237 12.406,3.23485 17.7348,1.84144 1.7595,-0.4601 3.9348,-0.69998 4.8338,-0.53306 1.7749,0.32954 6.7339,-0.92187 8.7415,-2.20593 0.6881,-0.4401 1.5335,-0.6928 1.8787,-0.56155 0.3452,0.13125 1.1969,0.0271 1.8926,-0.23146 1.0124,-0.37626 1.1986,-0.73438 0.9327,-1.79386 -0.2604,-1.03732 -0.1566,-1.25635 0.4795,-1.01224 0.4465,0.17133 0.8118,0.52721 0.8118,0.79086 0,0.73216 1.4828,0.57055 2.2443,-0.24462 0.7172,-0.7678 2.5867,-0.5681 2.5867,0.27632 0,0.27539 1.1641,0.44758 2.587,0.38266 1.4228,-0.0649 2.817,0.0241 3.098,0.19778 0.2811,0.17371 2.0759,0.12987 3.9884,-0.0974 1.9125,-0.2273 4.202,-0.19866 5.0877,0.0636 8.5287,2.52591 18.5174,3.29825 20.7274,1.60266 2.2038,-1.69091 3.0365,-1.75809 4.1557,-0.33533 0.7832,0.99567 1.5419,1.31549 3.1061,1.30928 3.0169,-0.012 3.5796,-0.54786 3.2264,-3.07257 -0.1647,-1.17793 -0.7245,-3.03278 -1.2438,-4.1219 -1.2595,-2.64128 -0.56,-3.80107 2.2928,-3.80107 l 2.0886,0 -0.194,4.96511 c -0.169,4.32601 -0.08,4.96511 0.6878,4.96511 0.485,0 1.0152,-0.34756 1.1782,-0.77235 0.163,-0.42479 1.0174,-0.93072 1.8986,-1.12426 1.4362,-0.31545 1.5861,-0.53946 1.4463,-2.16202 -0.2034,-2.36006 2.022,-6.10509 3.6399,-6.12554 1.6458,-0.0208 2.1264,0.95445 2.0428,4.14552 -0.08,3.04069 0.4988,3.61941 1.4754,1.47611 0.3363,-0.73805 0.9294,-1.34192 1.318,-1.34192 0.3886,0 1.1271,-0.66425 1.6411,-1.47611 1.5509,-2.44999 3.0598,-3.87251 4.118,-3.8823 0.7923,-0.007 0.9243,0.24346 0.6311,1.19845 -0.2039,0.66426 -0.5076,2.38981 -0.675,3.83458 l -0.3043,2.62685 1.5518,-0.37496 c 0.8535,-0.20623 1.8513,-0.76681 2.2172,-1.24574 1.1998,-1.57005 1.3627,-0.24408 0.201,1.63562 -1.5227,2.46381 -1.448,2.69278 0.744,2.28155 1.5698,-0.29451 2.1062,-0.12505 3.2619,1.03066 0.7607,0.76071 2.3911,1.73373 3.6231,2.16226 2.0387,0.70912 2.3016,0.6966 2.9255,-0.13931 0.377,-0.50515 0.6339,-1.79191 0.5709,-2.85946 -0.1284,-2.17687 2.1113,-6.54919 3.8245,-7.46606 1.4695,-0.78647 3.239,-0.6727 3.239,0.20826 0,0.49063 0.3758,0.65662 1.0736,0.47417 0.6167,-0.16129 1.0735,-0.0165 1.0735,0.34037 0,0.91925 -2.251,3.79825 -2.9697,3.79825 -0.9623,0 -3.311,2.28108 -3.7096,3.60291 -0.197,0.6531 -0.081,1.70541 0.2578,2.33846 0.51,0.95293 0.9077,1.08601 2.311,0.77325 0.9323,-0.20777 2.0146,-0.39454 2.4052,-0.41504 0.4333,-0.0228 0.6038,-0.44401 0.4373,-1.08053 -0.3009,-1.15107 1.733,-3.55442 3.1223,-3.68926 0.4562,-0.0443 1.1179,-0.10467 1.4704,-0.13419 0.4435,-0.0372 0.5967,0.89674 0.4978,3.03274 -0.089,1.92773 0.073,3.08642 0.4327,3.08642 0.3166,0 0.5757,0.33007 0.5757,0.73348 0,0.57589 0.8073,0.67572 3.7574,0.46465 3.7288,-0.2668 3.7574,-0.25857 3.7574,1.08347 0,0.86376 -0.5039,1.68242 -1.3945,2.26603 l -1.3946,0.91371 1.1968,0.83822 c 1.0696,0.74917 1.4604,0.75385 3.6801,0.044 1.3658,-0.43678 2.7833,-0.69415 3.15,-0.57193 0.8088,0.26963 0.8914,3.15114 0.1041,3.63768 -0.6053,0.37409 -0.1574,5.01606 0.5592,5.79568 0.5888,0.64061 4.8343,-0.75003 4.8343,-1.58352 0,-1.08259 1.981,-1.89226 4.1826,-1.70947 1.6784,0.13935 1.9714,0.34761 1.87,1.32927 -0.1094,1.0607 0.1093,1.15574 2.4635,1.07065 2.0728,-0.0749 2.9757,-0.43766 4.5672,-1.83499 1.0909,-0.95788 2.3978,-1.73358 2.9042,-1.72375 1.4552,0.0282 3.1725,1.77265 3.5824,3.63895 0.3666,1.66902 0.4476,1.71088 3.312,1.71088 1.6149,0 3.5885,-0.32838 4.3857,-0.72973 0.7972,-0.40135 2.5365,-0.87155 3.865,-1.04488 4.3921,-0.57305 6.3276,-1.71483 6.9736,-4.11371 0.8073,-2.99815 3.3499,-4.84706 6.6657,-4.84706 2.816,0 3.9565,0.46806 5.9165,2.428 1.5407,1.54078 3.0819,1.70536 4.1304,0.44108 0.4052,-0.48856 1.5734,-1.238 2.5959,-1.66542 1.8172,-0.75956 1.893,-0.73929 3.3548,0.89677 1.0073,1.12736 1.4956,2.26261 1.4956,3.47702 0,1.55316 0.2122,1.84556 1.5305,2.10922 0.8418,0.16836 2.0457,0.17139 2.6753,0.007 1.757,-0.45947 3.8612,0.23009 3.5083,1.14969 -0.3641,0.94897 1.618,3.86233 2.9059,4.27109 0.5116,0.16238 1.1696,0.82116 1.4621,1.46395 0.2926,0.6428 0.8943,1.33155 1.3372,1.53056 2.8553,1.28319 2.9522,1.41715 2.9522,4.08224 0,3.19259 1.6743,5.86265 3.996,6.37257 2.5868,0.56815 3.0898,1.6494 1.6645,3.57732 l -1.2179,1.64721 1.0919,1.09183 c 0.9519,0.95195 2.167,1.15779 9.4837,1.60669 7.1642,0.43953 8.5249,0.39838 9.301,-0.28129 3.2769,-2.8701 8.8651,-3.90653 15.1333,-2.80668 3.7588,0.65955 4.7383,1.04091 5.5605,2.16496 0.5488,0.75042 1.8773,1.84514 2.9522,2.43273 1.0749,0.58758 2.679,1.48675 3.5646,1.99813 3.9967,2.30771 10.0892,3.61642 20.6656,4.43906 10.4349,0.81163 15.9249,1.49147 19.5921,2.42612 1.7713,0.45146 4.1956,1.00387 5.3873,1.22759 1.1917,0.2237 2.4919,0.60775 2.8895,0.85344 0.3975,0.2457 3.2872,0.62312 6.4216,0.83874 7.2135,0.49622 9.7245,1.54387 9.7245,4.0573 0,1.62131 0.1345,1.73848 2.3807,2.07534 1.3094,0.19635 11.6355,0.0618 22.9469,-0.29899 11.3114,-0.3608 24.3101,-0.67519 28.8861,-0.69865 9.8691,-0.0506 33.4077,0.34932 33.8762,0.57552 0.1805,0.0871 6.5815,0.29671 14.2244,0.46571 7.6429,0.169 15.2247,0.39391 16.8484,0.4998 1.6237,0.10587 7.7351,0.34365 13.5807,0.52839 9.8581,0.31154 10.6167,0.26904 10.467,-0.58626 -0.2259,-1.29019 2.2786,-1.72424 6.8624,-1.18934 2.0413,0.23822 9.3878,0.7021 16.3256,1.03086 17.0248,0.80676 19.3805,1.02835 20.2577,1.90555 0.4142,0.4141 1.5207,0.76425 2.4591,0.77812 0.9384,0.0139 6.5371,0.26604 12.4415,0.56039 5.9045,0.29435 11.46,0.54392 12.3457,0.5546 1.5124,0.0183 8.0803,0.59384 14.7612,1.29364 1.6237,0.17009 5.9063,0.44912 9.5168,0.62006 5.7609,0.27276 6.6058,0.20341 6.9013,-0.56639 0.4305,-1.12191 1.2685,-1.11896 2.0921,0.007 0.5612,0.76746 1.8094,0.86998 9.4271,0.77433 8.3734,-0.10514 8.8199,-0.0577 9.6351,1.02312 0.9341,1.23834 1.3103,1.26833 14.1801,1.13001 5.7678,-0.062 6.4704,-0.17534 7.1561,-1.15447 0.7206,-1.02876 1.2723,-1.08047 10.5127,-0.98541 8.8182,0.0907 9.9577,-0.003 11.8992,-0.97886 4.0395,-2.03039 17.262,-2.38867 35.2576,-0.95535 6.9218,0.55132 10.4669,0.63252 11.4412,0.26205 2.0977,-0.79752 5.2421,-0.65107 7.2214,0.33635 1.2564,0.62677 2.508,0.78337 4.4362,0.55501 2.4642,-0.29185 2.817,-0.18704 4.2737,1.26974 1.5261,1.52612 1.769,1.5858 6.2476,1.53524 4.7206,-0.0533 7.3554,0.33343 8.5231,1.25099 0.3956,0.31089 0.9838,0.31434 1.5295,0.009 0.4888,-0.27357 2.0066,-0.31714 3.3829,-0.0971 1.373,0.21951 5.5805,0.69854 9.3503,1.06454 5.9887,0.58144 6.9712,0.56313 7.7831,-0.14504 0.7825,-0.68256 1.8187,-0.73377 6.5652,-0.32439 3.0999,0.26735 6.8438,0.48964 8.3199,0.49399 1.4761,0.004 4.2539,0.46645 6.1729,1.02688 1.9189,0.56044 5.4214,1.25617 7.7831,1.54607 5.4429,0.6681 8.9668,1.35035 9.8755,1.9119 0.3911,0.24172 1.784,1.43519 3.0952,2.65214 2.7882,2.58774 3.618,2.89266 8.0658,2.96428 3.6351,0.0585 4.5075,0.66535 3.1357,2.18112 -0.587,0.64863 -0.6969,1.10743 -0.3209,1.33977 1.1294,0.69802 0.5357,1.30172 -1.4412,1.46532 -1.8537,0.15343 -2.0707,0.34943 -2.7444,2.4786 -0.6708,2.12014 -0.6485,2.37284 0.2684,3.04495 0.5499,0.40312 1.6165,0.61017 2.3701,0.46012 1.0254,-0.20418 1.8273,0.15413 3.1867,1.42398 1.304,1.21821 1.6269,1.81389 1.1447,2.11192 -0.7486,0.46267 -3.2508,0.13405 -4.1123,-0.54007 -0.5568,-0.43582 -3.3087,0.60895 -2.9429,1.11732 0.1062,0.14762 -0.083,0.78499 -0.4213,1.41641 -0.5411,1.01105 -0.4399,1.21651 0.8486,1.72203 0.8047,0.3157 4.5398,0.68876 8.3002,0.82903 3.7604,0.14027 7.0816,0.40618 7.3805,0.59092 0.9123,0.56381 0.6064,1.34607 -0.5263,1.34607 -1.2901,0 -5.3714,1.70758 -5.3714,2.24734 0,0.21108 -1.9056,0.25457 -4.2346,0.0966 -2.6556,-0.18007 -4.3629,-0.0795 -4.5787,0.2697 -0.5606,0.90694 5.1082,2.11594 11.7655,2.50931 1.7714,0.10466 5.3945,0.32051 8.0516,0.47967 2.657,0.15916 7.971,0.44758 11.8089,0.64094 6.9034,0.34782 6.9938,0.36898 8.4541,1.98159 0.8118,0.8965 1.4761,2.07314 1.4761,2.61476 0,1.36189 2.9693,3.04192 6.1184,3.46173 1.5274,0.20363 3.0767,0.7979 3.6967,1.41794 1.7301,1.73002 4.7118,2.21449 21.9471,3.56594 6.7772,0.53141 12.531,1.18008 12.7863,1.44151 1.0743,1.10013 1.0582,3.17273 -0.035,4.46898 -1.0659,1.26418 -1.3211,1.30572 -7.3218,1.19167 -5.3426,-0.10155 -6.1276,-0.0101 -5.5795,0.65038 0.3508,0.42271 1.2216,0.91505 1.9349,1.09411 0.7134,0.17906 1.9465,0.92739 2.7403,1.66297 l 1.4431,1.33742 -1.8371,0 c -1.8161,0 -1.8347,0.0243 -1.6346,2.12327 0.1842,1.93163 0.071,2.15617 -1.2499,2.48779 -0.8389,0.21054 -2.7857,-0.006 -4.6085,-0.51296 -1.7359,-0.48262 -3.8362,-0.87749 -4.6672,-0.87749 -1.4643,0 -2.7994,0.8255 -2.7994,1.73094 0,0.61659 2.5434,1.54123 5.0765,1.84554 2.5845,0.31049 2.7712,0.41691 3.1284,1.78284 0.264,1.00974 0.027,1.08246 -3.5584,1.09013 -4.7295,0.0102 -6.3593,0.76117 -2.9723,1.36963 1.2934,0.23234 2.9085,0.36066 3.589,0.28514 0.6805,-0.0755 1.8279,0.24963 2.5497,0.72254 0.7217,0.47291 1.3122,0.75034 1.3122,0.61654 0,-0.13381 0.7851,0.004 1.7445,0.30572 0.9595,0.30195 3.6749,0.87884 6.0342,1.28199 3.6467,0.62312 4.4914,0.97386 5.636,2.34 0.7405,0.88385 2.0107,1.76555 2.8226,1.95933 0.8118,0.19379 1.4761,0.54851 1.4761,0.78826 0,0.54236 -2.7874,1.1758 -5.6342,1.28041 -1.182,0.0434 -2.7076,0.39007 -3.3904,0.77034 -0.6828,0.38027 -1.9755,0.6144 -2.8727,0.52029 -0.8972,-0.0941 -1.6635,-0.0503 -1.7029,0.0973 -0.098,0.36852 1.8002,3.07162 3.2674,4.65221 1.784,1.92186 1.5096,2.25672 -1.6103,1.96463 -6.3887,-0.59812 -6.8754,-0.53194 -8.1871,1.11293 -0.9385,1.17704 -1.5537,1.47972 -2.6006,1.27957 -0.8198,-0.15669 -1.9758,0.13633 -2.8737,0.7284 -1.8538,1.2223 -4.5451,1.26744 -7.8771,0.13212 -2.84,-0.96769 -3.6324,-0.70227 -2.2997,0.7703 0.4902,0.5417 0.8913,1.33784 0.8913,1.7692 0,0.45986 2.2345,1.88373 5.4017,3.44207 2.9709,1.46177 5.7365,3.02769 6.1457,3.47984 1.0462,1.15599 0.2517,2.12148 -2.0536,2.49557 -1.567,0.25428 -2.7421,-0.0667 -5.8611,-1.60108 -4.3799,-2.1547 -18.4645,-6.34772 -21.3461,-6.3548 -1.0333,-0.002 -2.9266,0.13757 -4.2074,0.31134 -1.8201,0.24697 -2.6588,0.0809 -3.8403,-0.76032 -1.7165,-1.2223 -5.8689,-1.50421 -5.9701,-0.40533 -0.1234,1.33921 0.1654,2.82924 0.645,3.32797 1.0773,1.12024 0.3307,1.43561 -3.1328,1.32327 -3.7925,-0.123 -4.2135,-0.0298 -3.8469,0.85171 0.4288,1.03095 6.2505,5.635 7.1253,5.635 0.4849,0 0.8815,0.23258 0.8815,0.51684 0,0.28426 1.025,1.50177 2.2779,2.70556 1.8763,1.803 2.1365,2.28033 1.4761,2.70852 -1.5838,1.02692 -3.1295,1.11999 -4.743,0.28561 -2.1166,-1.09456 -2.0326,-1.11838 -2.6879,0.76147 -0.7082,2.03169 -2.0695,2.07591 -5.7165,0.18569 -8.0569,-4.17589 -7.7423,-4.06065 -8.6385,-3.16444 -0.4574,0.45742 -0.5934,0.83167 -0.3022,0.83167 0.4873,0 4.3782,4.89898 4.3782,5.51262 0,0.83188 -3.9611,2.04176 -5.5271,1.68824 -0.9456,-0.21347 -2.6855,-0.45743 -3.8664,-0.54214 -1.1809,-0.0847 -3.0583,-0.31615 -4.172,-0.51427 -1.216,-0.21632 -2.6636,-0.0957 -3.6236,0.30198 -1.3018,0.53919 -1.7637,0.5254 -2.486,-0.0741 -0.4879,-0.40494 -0.944,-0.61551 -1.0133,-0.4679 -0.1847,0.3928 -6.6869,-3.34558 -6.6869,-3.84457 0,-0.44734 -4.395,-2.59666 -5.3098,-2.59666 -0.2958,0 -1.6735,-0.60386 -3.0616,-1.34192 -3.6649,-1.94865 -6.6251,-1.82908 -8.8101,0.35584 -1.2343,1.23443 -2.4311,1.81372 -4.3851,2.12259 -3.4943,0.55238 -4.5407,1.35281 -3.4066,2.60591 0.4502,0.49756 0.8186,1.29231 0.8186,1.76617 0,0.997 -1.6956,0.85314 -4.9651,-0.4212 -2.2203,-0.86539 -2.4415,-0.76175 -1.1438,0.53591 0.478,0.47799 0.7256,1.01251 0.5502,1.18787 -0.4867,0.48669 -6.3927,-2.22806 -9.5057,-4.36937 -3.2054,-2.20495 -5.0833,-2.52504 -4.6294,-0.78909 0.2073,0.79244 0.081,1.03497 -0.436,0.83663 -0.4004,-0.15363 -1.6508,-0.43289 -2.7789,-0.6206 -1.128,-0.1877 -3.2588,-0.84795 -4.7349,-1.46722 -1.9863,-0.83331 -4.0682,-1.1644 -8.0103,-1.27388 -2.9295,-0.0814 -6.013,-0.43233 -6.8521,-0.77993 -0.9987,-0.41363 -3.6005,-0.54651 -7.5305,-0.38459 -3.3025,0.13608 -7.0895,0.0447 -8.4156,-0.20302 -1.5169,-0.28339 -2.6112,-0.25017 -2.951,0.0896 -0.7802,0.78024 -3.6567,0.66321 -5.8097,-0.23637 -1.3335,-0.55715 -4.6485,-0.82239 -11.7403,-0.93934 -9.4154,-0.15528 -9.9582,-0.10809 -11.4924,0.99906 -1.1995,0.86554 -3.0483,1.32722 -7.2464,1.80946 -3.0998,0.35608 -6.6344,0.9805 -7.8545,1.38758 -1.2202,0.40709 -4.9642,0.87365 -8.32,1.0368 -3.3558,0.16315 -6.7053,0.41119 -7.4433,0.55119 -0.7381,0.14001 -3.9413,0.47705 -7.1183,0.74899 -3.1769,0.27194 -5.9556,0.60528 -6.1748,0.74076 -2.3073,1.42599 -47.4189,1.30044 -66.1487,-0.18406 -3.3951,-0.26909 -8.3468,-0.64532 -11.0038,-0.83606 -6.6155,-0.47493 -8.5665,-0.63763 -12.6141,-1.05202 l -3.4889,-0.3572 1.6103,1.15536 1.6103,1.15535 -4.1738,-0.27526 c -2.6066,-0.17191 -4.0538,-0.0813 -3.8544,0.24124 0.1755,0.28407 0.544,0.37753 0.8189,0.20767 0.2748,-0.16985 0.4997,-0.0934 0.4997,0.17 0,0.26767 -5.5032,0.46597 -12.4799,0.4497 -6.864,-0.016 -15.8616,0.27924 -19.9947,0.6561 -9.6052,0.87585 -19.2944,1.48288 -35.4267,2.21954 -14.7043,0.67139 -15.1499,0.7161 -18.7869,1.88379 -2.3814,0.76457 -7.5534,0.85271 -45.8938,0.78181 -59.3101,-0.10961 -70.4545,-0.3715 -86.4197,-2.03098 -2.8047,-0.29147 -7.1525,-0.69629 -9.6619,-0.89957 -2.5094,-0.20327 -4.7082,-0.457 -4.8864,-0.56382 -0.6415,-0.38476 -13.6636,-0.37574 -14.8799,0.0102 -0.7291,0.23134 -1.132,0.6905 -0.972,1.10746 0.3718,0.96882 -0.7635,1.31927 -3.2327,0.99791 -1.7116,-0.22276 -9.7244,-0.25009 -20.8492,-0.0711 -1.1809,0.0188 -4.8041,0.005 -8.0515,-0.0306 -3.2474,-0.036 -6.6895,0.044 -7.649,0.17772 -1.9525,0.27177 -2.1999,-0.0774 -0.8051,-1.13612 0.8558,-0.64965 0.8115,-0.71455 -0.4984,-0.73012 -0.7908,-0.009 -1.8174,-0.39661 -2.2813,-0.86054 -0.4876,-0.48766 -0.8435,-0.58749 -0.8435,-0.23672 0,0.33371 -0.2249,0.46779 -0.4997,0.29796 -0.2748,-0.16983 -0.6553,-0.057 -0.8455,0.25078 -0.5897,0.95411 -4.1505,0.42625 -4.4338,-0.65722 -0.1379,-0.5271 -0.5924,-0.9584 -1.0101,-0.9584 -0.4176,0 -0.8805,-0.31556 -1.0285,-0.70124 -0.148,-0.38569 -1.2234,-0.75756 -2.3899,-0.82639 -1.8322,-0.10811 -2.0746,0.006 -1.7811,0.83544 0.486,1.37453 2.3909,3.37603 3.2131,3.37603 0.9156,0 2.5264,2.47537 2.0805,3.197 -0.1905,0.30821 -0.6802,0.56039 -1.0881,0.56039 -1.4519,0 -1.3982,1.1417 0.2087,4.44017 0.8957,1.83862 1.609,3.46377 1.585,3.61137 -0.024,0.14761 0.5742,1.37496 1.3293,2.7274 0.7908,1.41655 1.3499,3.23711 1.3188,4.29419 -0.03,1.00932 -0.1531,1.54082 -0.2741,1.1812 -0.3617,-1.07471 -5.7881,-3.9106 -9.5314,-4.98101 l -3.4955,-0.99961 -0.6035,1.12769 c -0.4829,0.90239 -0.4307,1.254 0.2612,1.76001 0.9535,0.69717 0.6371,1.40981 -0.442,0.99575 -0.381,-0.14619 -1.1789,0.58081 -1.8081,1.64732 -1.0238,1.73515 -1.3449,1.90888 -3.5282,1.90888 -1.321,0 -2.5517,0.24248 -2.7348,0.53877 -0.4084,0.66074 -2.9124,0.11944 -4.0668,-0.87925 -2.3053,-1.99414 -3.4007,-0.28349 -3.2294,5.04312 0.084,2.60757 -0.078,3.43208 -0.7225,3.67945 -0.4569,0.17529 -0.729,0.4832 -0.6048,0.68422 0.4012,0.64917 -2.0925,0.40498 -2.6475,-0.25927 -0.5853,-0.70059 -6.5767,-2.91241 -7.8188,-2.88658 -0.4232,0.009 0.3175,0.96778 1.646,2.13111 2.8076,2.4584 2.1837,2.73794 -1.6438,0.73652 -2.9166,-1.5248 -7.4811,-2.35581 -7.4811,-1.36167 0,0.32319 0.5038,0.85728 1.1195,1.18682 1.617,0.86538 0.9891,1.12182 -1.1551,0.47178 -1.0137,-0.30733 -3.5106,-0.61749 -5.5488,-0.68921 -3.1325,-0.11026 -3.9923,0.0642 -5.5596,1.12778 -1.7889,1.21401 -2.0305,1.23853 -6.8744,0.69839 -6.8274,-0.76133 -6.7775,-0.76602 -6.5761,0.62593 0.1081,0.74756 0.6653,1.30151 1.508,1.49902 2.5406,0.59561 0.075,1.16553 -3.422,0.79102 -3.154,-0.3378 -3.4181,-0.28311 -3.6919,0.76406 -0.1623,0.62036 -0.1708,1.60273 -0.019,2.1832 0.2367,0.90547 0.5968,1.01138 2.5357,0.74561 2.0566,-0.28189 2.3893,-0.15586 3.6996,1.40132 0.9664,1.14853 1.4397,2.33359 1.4397,3.60493 0,1.87749 -0.017,1.89155 -2.0129,1.63003 -1.1071,-0.14512 -2.5563,-0.44019 -3.2206,-0.65576 -1.0393,-0.33726 -1.2078,-0.20093 -1.2078,0.97768 0,0.75323 -0.2401,2.00127 -0.5337,2.77344 -0.2935,0.77212 -0.6222,5.02954 -0.7303,9.46099 -0.111,4.55005 -0.438,8.29839 -0.7512,8.61157 -0.9307,0.93072 -2.4956,0.25875 -3.0468,-1.30825 -0.3568,-1.01469 -0.3179,-2.24507 0.1231,-3.89404 0.3547,-1.32593 0.6448,-3.36157 0.6448,-4.52368 0,-2.62442 -1.0157,-7.57418 -1.7387,-8.47286 -0.2969,-0.36904 -0.3291,-0.67466 -0.072,-0.67915 0.2576,-0.005 0.1409,-0.21567 -0.2593,-0.46924 -0.6008,-0.38076 -0.5714,-0.69946 0.1691,-1.82949 0.5531,-0.84419 0.8318,-2.15518 0.7276,-3.42232 -0.1566,-1.90244 -0.2812,-2.04199 -1.6884,-1.89262 -1.139,0.1209 -1.5885,-0.10323 -1.7956,-0.89541 -0.152,-0.58116 -0.9279,-1.32657 -1.7243,-1.6564 -2.0788,-0.86104 -5.3395,0.56768 -6.1408,2.69058 -0.3278,0.86826 -0.9656,1.58828 -1.4176,1.60009 -0.4542,0.0117 -0.1388,0.39156 0.7056,0.84913 1.2934,0.70088 6.2559,5.40888 6.2559,5.93506 0,0.6521 -3.4031,-0.0609 -5.5928,-1.17183 -3.0789,-1.56196 -5.7042,-1.85801 -4.5918,-0.51772 0.9409,1.13378 -0.7132,2.3559 -3.2346,2.38984 -1.0333,0.0137 -2.2283,0.24648 -2.6556,0.5168 -0.4999,0.31631 -1.4321,0.21767 -2.6152,-0.27661 -1.9845,-0.8292 -3.497,-1.04927 -2.4556,-0.35733 0.3265,0.2169 0.7601,1.30015 0.9637,2.40723 0.2269,1.23389 0.6723,2.01289 1.151,2.01289 0.4294,0 0.7808,0.4831 0.7808,1.07353 0,0.59644 0.3578,1.07354 0.8052,1.07354 0.4428,0 0.8051,0.36235 0.8051,0.80518 0,0.49536 -0.5032,0.80512 -1.3079,0.80512 -1.0262,0 -1.6331,0.60367 -2.818,2.80298 -0.8306,1.5416 -2.3345,3.35562 -3.3421,4.03111 -1.0075,0.67553 -2.0945,1.75019 -2.4154,2.38823 -0.7033,1.3979 -1.2792,1.59268 -2.8488,0.96357 z m -5.6148,-13.85108 c 0.114,-0.77412 -0.1114,-1.16573 -0.6709,-1.16573 -0.5481,0 -0.8425,0.48462 -0.8425,1.38663 0,1.68154 1.2606,1.49755 1.5134,-0.2209 z m 12.3196,-7.17081 c -0.3318,-0.99531 -1.4873,-1.1604 -1.4873,-0.21245 0,0.46739 0.3824,0.84986 0.8499,0.84986 0.4674,0 0.7542,-0.28687 0.6374,-0.63741 z m -23.3543,-13.2064 c -0.07,-0.65214 0.083,-1.18574 0.34,-1.18574 0.64,0 1.0627,-2.46055 0.562,-3.2708 -0.3111,-0.50332 -0.8535,-0.4439 -2.3258,0.25474 -1.5507,0.73589 -1.8248,1.08784 -1.4244,1.82944 0.2726,0.50503 0.6397,1.59854 0.8157,2.42998 0.396,1.8709 2.2348,1.8187 2.0325,-0.0576 z m 83.829,-5.9604 c 0.3396,-0.54936 -0.906,-1.12978 -2.4246,-1.12978 -0.5663,0 -1.0296,0.3623 -1.0296,0.80512 0,0.88824 2.9354,1.16407 3.4542,0.32466 z m 9.965,-3.07305 c 0,-0.1831 -0.6643,-1.37905 -1.4761,-2.65766 -1.3996,-2.2042 -2.6601,-3.25074 -3.2296,-2.68125 -0.5327,0.53266 0.459,2.02739 1.5311,2.30776 0.7678,0.20078 1.0327,0.60244 0.8523,1.29224 -0.1529,0.58481 0.108,1.2167 0.6277,1.52002 1.0367,0.60513 1.6946,0.69014 1.6946,0.21889 z M 491.224,603.96202 c 0,-0.11603 -0.3623,-0.34999 -0.8051,-0.51992 -0.4429,-0.16993 -0.8052,-0.075 -0.8052,0.21095 0,0.28596 0.3623,0.51993 0.8052,0.51993 0.4428,0 0.8051,-0.0949 0.8051,-0.21096 z m 3.8854,-0.16868 c -0.6678,-0.12839 -1.6339,-0.12351 -2.1471,0.0108 -0.5133,0.13435 0.033,0.2394 1.2139,0.23344 1.181,-0.006 1.6008,-0.11588 0.9332,-0.24427 z m 196.3294,-0.14029 c 0,-0.28595 -0.3623,-0.38088 -0.8051,-0.21095 -0.4429,0.16993 -0.8052,0.40389 -0.8052,0.51992 0,0.11602 0.3623,0.21096 0.8052,0.21096 0.4428,0 0.8051,-0.23397 0.8051,-0.51993 z M 488.145,603.25836 c -0.6602,-0.12741 -1.8679,-0.13071 -2.6838,-0.007 -0.816,0.12337 -0.2758,0.22762 1.2003,0.23165 1.4761,0.004 2.1436,-0.0969 1.4835,-0.22433 z M 388.0131,601.6747 c 0.3567,-1.07018 -3.167,-2.00682 -6.9798,-1.85529 -1.3065,0.0519 -1.4249,0.19046 -0.9386,1.099 0.7945,1.48459 7.4633,2.12153 7.9184,0.75629 z M 889.1693,491.87685 c -0.1446,-0.23393 -0.746,-0.42534 -1.3364,-0.42534 -0.5904,0 -0.9338,0.22618 -0.7629,0.50262 0.1709,0.27643 0.7722,0.46784 1.3364,0.42534 0.5642,-0.0425 0.9075,-0.26868 0.7629,-0.50262 z m -19.2033,-2.87889 c 5.5647,-1.61768 2.4134,-2.18393 -3.4064,-0.61208 -1.2546,0.33889 -2.2812,0.80497 -2.2812,1.03575 0,0.67574 2.5624,0.48488 5.6876,-0.42367 z m -471.4773,-2.82511 c 0.315,-0.31499 0.3127,-0.62322 -0.01,-0.82021 -0.7169,-0.44312 -7.6344,0.25741 -7.6344,0.77315 0,0.9581 6.6882,0.9993 7.6404,0.0471 z m 15.4406,-1.16256 c 0,-0.29523 -0.9662,-0.53677 -2.1471,-0.53677 -1.1809,0 -2.147,0.24154 -2.147,0.53677 0,0.29522 0.9661,0.53676 2.147,0.53676 1.1809,0 2.1471,-0.24154 2.1471,-0.53676 z m -1.8501,-2.63764 c -0.1668,-0.26981 -1.9856,-1.15062 -4.0418,-1.95737 -3.0783,-1.20771 -3.8837,-1.34648 -4.5595,-0.78563 -1.9872,1.6492 -0.7928,2.5022 4.0102,2.86403 1.3285,0.10009 2.9732,0.22417 3.6548,0.27575 0.6817,0.0516 1.103,-0.12697 0.9363,-0.39678 z m -19.7109,-0.6183 c 1.008,-0.0398 -4.5609,-1.66953 -5.8142,-1.70156 -2.7958,-0.0715 -3.7574,0.18608 -3.7574,1.00628 0,0.74979 0.4756,0.83658 3.2204,0.58769 1.8463,-0.16742 3.3582,-0.0691 3.5433,0.23043 0.1776,0.28734 0.6805,0.3852 1.1177,0.21746 0.4371,-0.16774 1.1977,-0.32088 1.6902,-0.3403 z m 39.2744,0.067 c 0,-0.2778 -0.2416,-0.65437 -0.5368,-0.83683 -0.2952,-0.18246 -0.5368,-0.79598 -0.5368,-1.36337 0,-1.12107 2.159,-1.97658 3.2643,-1.29349 0.3528,0.21804 1.6048,0.47811 2.7823,0.57794 1.1774,0.0998 2.4265,0.41865 2.7758,0.70849 0.9788,0.81232 21.4022,2.4841 21.6398,1.77135 0.1273,-0.38172 1.615,-0.49232 4.3238,-0.32144 3.8081,0.24022 4.0489,0.19518 3.091,-0.57812 -1.2467,-1.00654 -1.4761,-2.77643 -0.4682,-3.61291 0.8378,-0.6953 7.7276,-0.27765 10.0621,0.60995 0.7947,0.30215 4.2366,0.54937 7.6486,0.54937 5.4535,0 6.1228,-0.0974 5.5354,-0.80515 -0.3675,-0.44284 -1.1075,-0.80516 -1.6443,-0.80516 -0.5369,0 -1.1425,-0.26915 -1.3458,-0.59811 -0.2163,-0.34996 -1.1918,-0.48784 -2.3512,-0.33233 -1.1494,0.15417 -2.529,-0.0375 -3.2852,-0.45641 -0.7171,-0.3972 -2.4587,-0.73074 -3.8703,-0.7412 -1.4116,-0.0104 -3.9478,-0.46433 -5.6361,-1.0086 -3.8595,-1.24427 -17.0667,-1.59006 -21.1138,-0.5528 -2.2331,0.57232 -3.0247,0.54714 -5.1783,-0.16473 -1.3983,-0.46217 -3.6292,-0.78095 -4.9577,-0.7084 -1.445,0.0789 -3.3976,-0.28036 -4.8599,-0.89421 -2.4203,-1.01596 -2.4682,-1.0154 -4.831,0.0565 -3.0457,1.38166 -4.5593,1.37441 -8.6505,-0.0415 -2.7625,-0.95602 -3.5981,-1.04563 -5.0054,-0.53677 -2.396,0.86642 -4.1245,0.7616 -6.8736,-0.41679 -2.5661,-1.09999 -4.1277,-2.83228 -4.1411,-4.59369 -0.022,-2.9029 -0.4607,-2.97702 -13.396,-2.26286 -7.3449,0.40551 -9.2435,0.72959 -7.6334,1.30295 0.3858,0.13739 1.2806,0.82896 1.9885,1.53682 1.5966,1.59666 2.1153,1.5957 4.9218,-0.009 2.937,-1.67946 3.4424,-1.06987 0.9201,1.10985 -1.9276,1.66586 -1.9655,1.76636 -1.1406,3.02543 0.5135,0.78365 1.5631,1.41946 2.6355,1.59645 0.9802,0.16176 3.3913,1.04152 5.3579,1.95503 1.9667,0.9135 3.964,1.6609 4.4383,1.6609 0.9667,0 5.3627,2.16814 8.6346,4.25862 1.1858,0.7576 2.6351,1.66519 3.2207,2.01685 1.2894,0.77436 14.2155,0.95389 14.2155,0.19744 z m -5.5957,-4.19596 c -0.7885,-0.78845 -0.1238,-1.20341 1.9278,-1.20341 1.23,0 2.1083,0.12823 1.9515,0.28496 -0.5126,0.51266 -3.5629,1.23483 -3.8793,0.91845 z m -44.0286,-12.42345 c 0.2805,-0.26657 0.993,-0.60883 1.5834,-0.76058 0.5905,-0.15176 -0.1152,-0.23559 -1.5683,-0.1863 -1.5682,0.0532 -2.7317,0.3623 -2.8628,0.76058 -0.2571,0.78125 2.0621,0.93297 2.8477,0.1863 z m -7.6287,-10.88067 c 0.6689,-1.06041 0.1022,-2.59066 -0.9594,-2.59066 -0.4465,0 -0.9599,0.59014 -1.1409,1.31142 -0.5816,2.31725 0.8829,3.20924 2.1003,1.27924 z m -1.2141,-6.7235 c 0.7337,-1.92995 0.431,-1.97524 -1.641,-0.24544 -1.0801,0.90171 -1.6447,1.75758 -1.41,2.1374 0.578,0.93514 2.4074,-0.19936 3.051,-1.89196 z m -195.693,-0.16131 c -0.1825,-0.29522 -0.861,-0.53307 -1.5078,-0.52855 -0.9561,0.007 -1.0254,0.10553 -0.3709,0.52855 1.0575,0.68341 2.3011,0.68341 1.8787,0 z m 3.489,-11.3417 c 2.7109,-1.64367 3.6604,-3.38 1.6682,-3.05061 -0.5587,0.0924 -1.5154,-0.28362 -2.126,-0.83551 -0.9157,-0.82756 -1.561,-0.93425 -3.6811,-0.60863 -2.1942,0.33701 -2.3938,0.46178 -1.363,0.85197 1.2533,0.47437 1.3873,0.83654 1.2242,3.30976 -0.08,1.21551 0.123,1.47576 1.1508,1.47411 0.6865,-9.8e-4 2.0936,-0.51459 3.1269,-1.14109 z m 38.0089,-5.08876 -0.1667,-2.62424 -5.0993,-0.58381 c -5.7524,-0.65857 -6.4302,-0.56432 -6.0623,0.84295 0.1907,0.72901 0.969,1.09301 2.9069,1.35954 1.4556,0.2002 3.0423,0.76317 3.5261,1.25105 1.8501,1.86607 4.1521,3.28861 4.5987,2.84194 0.2548,-0.25475 0.3882,-1.64409 0.2966,-3.08743 z m -13.8543,-3.39955 c 0,-0.71485 -2.2096,-2.17751 -3.2895,-2.17751 -0.7713,0 -0.8127,0.19599 -0.2832,1.33773 0.4401,0.94897 1.0494,1.33895 2.0966,1.34193 0.8119,0.002 1.4761,-0.22367 1.4761,-0.50215 z m -31.401,-0.5672 c -0.1824,-0.29523 -0.7402,-0.53308 -1.2394,-0.52855 -0.7822,0.007 -0.7964,0.0801 -0.1025,0.52855 1.0512,0.67933 1.7618,0.67933 1.3419,0 z m 71.7632,241.81438 c 0.144,-0.29521 -0.1828,-0.95947 -0.7264,-1.47612 -0.5437,-0.51665 -0.9885,-0.69224 -0.9885,-0.39019 0,0.30201 -0.6038,0.15347 -1.3419,-0.33017 -0.738,-0.48355 -1.3419,-0.62617 -1.3419,-0.3169 0,0.30928 -0.5435,0.73194 -1.2077,0.93926 -0.6643,0.20728 -1.357,0.60899 -1.5396,0.89268 -0.1902,0.2957 -1.221,-0.0381 -2.4154,-0.78247 -1.146,-0.71411 -2.5064,-1.4543 -3.023,-1.64488 -0.5166,-0.19057 -0.9394,-0.71645 -0.9394,-1.1685 0,-0.45215 -0.2415,-0.82202 -0.5367,-0.82202 -0.2952,0 -0.5368,-0.25582 -0.5368,-0.56841 0,-0.3127 0.2076,-0.44019 0.4613,-0.2834 0.4024,0.24868 0.4325,-0.95918 0.066,-2.63716 -0.25,-1.14365 0.071,-1.79331 1.7815,-3.60713 1.4585,-1.54639 2.2932,-1.94365 4.7214,-2.24712 3.0863,-0.38555 5.8707,0.48203 6.2157,1.93682 1.0744,4.531 1.1711,6.53857 0.3439,7.14341 -0.7453,0.54497 -0.6206,0.68286 0.8906,0.9851 1.6477,0.32955 1.7356,0.45904 1.4116,2.0792 -0.19,0.95025 -0.618,1.97681 -0.951,2.28126 -0.3735,0.34155 -0.5051,0.34794 -0.3434,0.0166 z m -40.899,-2.19897 c 0,-0.95625 1.1701,-4.7584 2.8424,-9.23633 0.7054,-1.88872 1.3035,-2.75484 1.7771,-2.57315 0.3926,0.15069 0.8797,0.006 1.0824,-0.32231 0.2386,-0.38614 0.1209,-0.44326 -0.3342,-0.16201 -0.4551,0.28129 -0.5728,0.22417 -0.3341,-0.16197 0.3672,-0.59424 1.9585,-0.30249 1.9288,0.35362 -0.01,0.18979 -0.4847,2.03593 -1.0579,4.10249 -0.5733,2.0666 -1.0493,4.27412 -1.0579,4.90566 -0.021,1.55318 -1.5737,3.22818 -3.3704,3.63623 -1.1451,0.26006 -1.4762,0.13848 -1.4762,-0.54223 z m 1.3419,-0.75327 c -0.1824,-0.29522 -0.4382,-0.53677 -0.5684,-0.53677 -0.1302,0 -0.2367,0.24155 -0.2367,0.53677 0,0.29521 0.2558,0.53676 0.5685,0.53676 0.3126,0 0.4191,-0.24155 0.2366,-0.53676 z m 17.3014,-10.35079 c 0.3656,-3.12729 0.7048,-4.19023 1.2329,-3.86387 0.2866,0.17715 0.5211,0.0663 0.5211,-0.24643 0,-0.3126 -0.3398,-0.56841 -0.755,-0.56841 -0.5131,0 -0.6561,-0.37759 -0.4465,-1.17896 0.2942,-1.12534 0.3269,-1.13149 0.7171,-0.13422 0.2942,0.75171 0.4386,0.81889 0.5147,0.23964 0.058,-0.44287 0.3083,0.76124 0.5558,2.67574 0.4684,3.62368 0.2145,4.38242 -1.5568,4.65273 -0.8157,0.12451 -0.9505,-0.14673 -0.7833,-1.57622 z m -96.1835,-6.78872 c -0.3969,-0.64229 0.6128,-1.27866 1.3278,-0.83682 0.6003,0.371 0.2062,1.33653 -0.5455,1.33653 -0.2604,0 -0.6124,-0.22486 -0.7823,-0.49971 z m 42.1135,-4.81055 c 0,-0.26367 0.3821,-0.62598 0.8491,-0.80517 1.313,-0.50386 1.4865,-0.39463 0.7612,0.47934 -0.7405,0.89234 -1.6103,1.06826 -1.6103,0.32583 z m 16.1031,-1.93613 c 0.3675,-0.44287 0.7889,-0.80518 0.9365,-0.80518 0.1477,0 -0.032,0.36231 -0.3998,0.80518 -0.3675,0.44282 -0.789,0.80513 -0.9366,0.80513 -0.1476,0 0.032,-0.36231 0.3999,-0.80513 z m -11.0093,-0.81402 c -0.2898,-0.46899 -0.5207,-1.39624 -1.0001,-4.01689 -0.054,-0.29527 -0.2867,-0.83872 -0.5173,-1.20777 -0.2744,-0.43916 -0.084,-0.69287 0.5519,-0.73427 6.3815,-0.41641 6.8377,-0.40757 5.9318,0.1144 -0.5189,0.29912 -1.1782,0.39878 -1.465,0.22153 -0.2868,-0.17724 -1.0251,-0.0526 -1.6407,0.27676 -0.8177,0.43765 -0.9688,0.78042 -0.5606,1.27217 0.3894,0.46919 0.3764,0.85532 -0.043,1.27442 -0.4439,0.44399 -0.3,0.52255 0.5496,0.30039 1.3084,-0.34214 1.3498,-0.23218 0.6273,1.66801 -0.5296,1.39312 -1.8155,1.83228 -2.4342,0.83125 z M 778.004,636.0548 c 0.1783,-0.17837 0.6413,-0.19742 1.0288,-0.0425 0.4282,0.17133 0.301,0.29853 -0.3243,0.32431 -0.5658,0.023 -0.8829,-0.10361 -0.7045,-0.28198 z M 89.4579,634.77755 c -0.1854,-0.30005 0.04,-0.54551 0.4997,-0.54551 0.9429,0 1.0817,0.32212 0.3371,0.78223 -0.2748,0.16982 -0.6513,0.0633 -0.8368,-0.23672 z m 302.2698,-5.64483 c -0.17,-0.44282 -0.075,-0.80512 0.2109,-0.80512 0.286,0 0.5199,0.3623 0.5199,0.80512 0,0.44283 -0.095,0.80518 -0.2109,0.80518 -0.1161,0 -0.35,-0.36235 -0.5199,-0.80518 z m -210.2682,-1.20215 c -1.1543,-3.03598 0.4873,-6.34223 3.4124,-6.87265 1.1831,-0.21455 1.3912,-0.0146 1.7004,1.63388 0.2109,1.12432 0.6659,1.87837 1.1333,1.87837 1.1021,0 1.0199,0.18291 -1.186,2.64014 -2.3835,2.65508 -4.2249,2.91714 -5.0601,0.72026 z m -92.0496,-1.81894 c -0.4616,-0.74692 0.4323,-1.84985 2.8927,-3.5689 2.9249,-2.0437 10.2659,-5.70103 10.6574,-5.30957 0.3958,0.39585 -0.8437,2.5061 -1.4721,2.5061 -0.2975,0 -1.7029,1.08697 -3.1232,2.41548 -1.4203,1.32852 -2.8266,2.41543 -3.1252,2.41543 -0.2986,0 -1.1416,0.47095 -1.8733,1.04649 -1.2734,1.00171 -3.473,1.27685 -3.9563,0.49497 z m 17.6056,-2.16402 c 0.1142,-0.34243 0.9989,-1.04697 1.9661,-1.56572 0.9672,-0.51865 2.1621,-1.27671 2.6552,-1.68447 1.2232,-1.01133 6.2731,-3.64199 6.9912,-3.64199 1.4593,0 -0.3125,1.55835 -4.5001,3.958 -2.5109,1.43887 -4.6961,2.82779 -4.856,3.08643 -0.4361,0.70567 -2.496,0.56665 -2.2564,-0.15225 z m 282.7592,-13.30882 c 0,-0.28175 0.8899,-0.39828 1.9775,-0.25905 2.7772,0.35556 2.9168,0.77124 0.259,0.77124 -1.2301,0 -2.2365,-0.23049 -2.2365,-0.51219 z M 50.3579,610.25634 C 50.161,610.05956 50,609.25049 50,608.45844 c 0,-1.26356 0.4007,-1.59797 3.2691,-2.72856 1.798,-0.70868 3.4974,-1.71122 3.7763,-2.22786 0.2789,-0.51664 1.1184,-0.93935 1.8654,-0.93935 1.7145,0 2.5828,-0.4716 6.9404,-3.76992 3.2987,-2.49672 5.6937,-3.31735 6.3906,-2.18967 0.6613,1.06992 -0.4694,3.86913 -2.3087,5.71585 -2.3332,2.34264 -5.565,4.09375 -8.0767,4.37629 -1.0071,0.11329 -3.325,1.04142 -5.1508,2.06246 -3.1213,1.74552 -5.5318,2.31466 -6.3477,1.49866 z m 645.5205,-4.26059 c 0.1783,-0.17836 0.6413,-0.19743 1.0288,-0.0423 0.4281,0.17135 0.301,0.29854 -0.3244,0.3243 -0.5658,0.0233 -0.8828,-0.10356 -0.7044,-0.28193 z M 88.2115,603.58394 c 0.2418,-0.74283 4.6491,-2.50492 6.4745,-2.58854 2.8672,-0.13136 -1.2175,2.44857 -4.7962,3.02931 -1.5011,0.24359 -1.8695,0.14683 -1.6783,-0.44077 z m 42.5035,-4.49577 c -0.4384,-1.14231 -0.1795,-1.34007 2.2749,-1.73838 l 2.0709,-0.33605 -0.8581,1.29835 c -1.0319,1.56126 -3.0169,2.00296 -3.4877,0.77608 z m -2.3468,-5.60679 c 0,-0.45497 3.2511,-2.72762 3.9019,-2.72762 0.1575,0 -0.3907,0.72463 -1.218,1.6103 -1.48,1.5843 -2.6839,2.0855 -2.6839,1.11732 z m -60.481,-22.20432 c -0.1547,-0.25034 -0.1968,-0.5192 -0.093,-0.59746 2.92,-2.21054 5.824,-2.67174 5.824,-0.92495 0,1.65359 -4.8528,2.94279 -5.7306,1.52241 z M 119.78,538.21613 c 0,-0.5543 0.3831,-1.32575 0.8513,-1.71433 0.4682,-0.38858 1.3675,-1.8047 1.9984,-3.14691 1.4962,-3.18301 6.4637,-8.08325 9.5072,-9.37845 1.3223,-0.56271 3.8535,-1.67619 5.6248,-2.47439 1.7713,-0.7982 4.7883,-1.62446 6.7043,-1.83614 1.916,-0.21169 3.7715,-0.62376 4.1233,-0.91571 0.6094,-0.50579 6.4714,-1.60333 9.2852,-1.73848 0.9383,-0.045 1.5279,0.35233 2.0166,1.35897 1.3398,2.76 -0.2566,3.84423 -8.1734,5.55106 -7.1564,1.54291 -10.3385,2.76704 -12.4875,4.80395 -1.1029,1.04535 -2.2313,1.90272 -2.5075,1.90529 -0.2762,0.002 -1.6237,0.95029 -2.9944,2.10606 -1.3707,1.15578 -3.4005,2.48098 -4.5108,2.94489 -1.1103,0.46391 -2.7403,1.45065 -3.6223,2.19274 -2.0439,1.71984 -5.8152,1.94128 -5.8152,0.34145 z m 16.7749,-20.33077 c -2.4469,-0.41889 -1.9557,-4.87969 0.5547,-5.03812 5.4993,-0.34706 8.8773,1.34203 5.3488,2.67453 -0.8118,0.30659 -2.2007,1.01031 -3.0864,1.56382 -0.8856,0.55351 -2.1534,0.91341 -2.8171,0.79977 z m 6.4307,-10.33078 c 0.3687,-0.59045 1.1328,-1.07354 1.698,-1.07354 0.9936,0 0.9955,0.0355 0.056,1.07354 -0.5344,0.59044 -1.2985,1.07354 -1.698,1.07354 -0.5922,0 -0.6026,-0.19855 -0.056,-1.07354 z m -6.5658,-3.23791 c 0,-0.88165 2.1729,-1.44859 4.5353,-1.18331 2.5632,0.28784 2.9607,0.54468 1.8904,1.22157 -1.0822,0.68438 -6.4257,0.65256 -6.4257,-0.0383 z m 23.6979,-5.6745 c -0.3989,-0.45103 -0.5877,-0.95745 -0.4198,-1.12538 0.4146,-0.4146 3.5603,0.92364 3.5603,1.51461 0,0.78257 -2.3634,0.48965 -3.1405,-0.38923 z m 13.2963,0.004 c -0.6207,-0.74797 -0.5492,-0.83313 0.5632,-0.67096 0.7009,0.10216 1.3737,0.48768 1.4952,0.85671 0.3181,0.96574 -1.2177,0.82715 -2.0584,-0.18575 z m -26.817,-7.48899 c -1.1269,-1.35783 0.6395,-4.41292 3.1133,-5.3846 2.331,-0.91559 2.5692,-1.05148 5.489,-3.13079 1.6531,-1.17723 2.3473,-1.41091 2.8118,-0.94646 0.4644,0.46445 0.305,0.94849 -0.6457,1.96045 -1.0836,1.15346 -1.1758,1.53358 -0.6514,2.68459 0.8679,1.90478 0.4385,2.5018 -3.0137,4.19044 -3.3866,1.65655 -6.0532,1.89169 -7.1033,0.62637 z m -55.5145,-2.89463 c -0.1383,-0.2238 0.3442,-0.72567 1.0722,-1.11528 0.7279,-0.3896 1.3236,-0.87561 1.3236,-1.08 0,-0.2044 0.556,-0.26533 1.2357,-0.13541 0.6797,0.12993 2.6702,-0.24802 4.4234,-0.83988 1.7531,-0.59186 3.2904,-0.97321 3.4162,-0.84743 0.3017,0.30171 0.2559,0.32725 -3.1709,1.76872 -3.9298,1.6531 -7.9888,2.75305 -8.3002,2.24928 z m 825.6203,-2.00009 c -0.6176,-0.61763 -0.3909,-1.25246 0.4473,-1.25246 0.4429,0 0.8052,0.36232 0.8052,0.80515 0,0.8382 -0.6348,1.06493 -1.2525,0.44731 z M 82.2061,484.7733 c 0,-0.1302 0.2416,-0.386 0.5368,-0.56846 0.2952,-0.18245 0.5367,-0.0759 0.5367,0.23671 0,0.31264 -0.2415,0.56845 -0.5367,0.56845 -0.2952,0 -0.5368,-0.10652 -0.5368,-0.2367 z m -9.2899,-6.04243 c -1.4682,-0.38238 -0.8519,-1.907 0.9676,-2.3936 0.8944,-0.23916 2.4428,-0.19807 3.489,0.0926 1.0346,0.28744 3.4511,0.52766 5.3701,0.53382 3.5561,0.0114 5.2225,0.53718 4.6482,1.46644 -0.3212,0.51966 -12.6507,0.77582 -14.4749,0.30074 z m 37.4971,-5.46946 c 0.8121,-0.75872 2.9254,-1.25769 2.9254,-0.6907 0,0.58617 -1.2776,1.16714 -2.5667,1.16714 -0.5309,0 -0.6703,-0.18523 -0.3587,-0.47644 z m 4.3212,-1.5881 c 1.0035,-1.1719 3.9719,-1.63475 3.9719,-0.6193 0,0.29522 -0.1811,0.56759 -0.4026,0.60527 -0.2214,0.0377 -0.8856,0.13203 -1.4761,0.20968 -0.5904,0.0777 -1.5257,0.3255 -2.0783,0.55079 -0.9776,0.39856 -0.978,0.37841 -0.015,-0.74644 z m 354.7717,-6.71021 c -0.817,-0.59737 -0.8582,-0.80483 -0.2368,-1.1922 0.9906,-0.61757 2.6801,-0.86441 3.5726,-0.52194 0.5437,0.20864 0.5763,0.5334 0.1361,1.35585 -0.6694,1.25097 -2.0555,1.394 -3.4719,0.35829 z m -309.6028,-0.72033 c -0.5166,-0.13501 -0.9393,-0.47781 -0.9393,-0.76177 0,-0.31113 0.4266,-0.28799 1.0735,0.0582 0.5905,0.316 1.0736,0.68681 1.0736,0.82404 0,0.13723 -0.06,0.22148 -0.1342,0.18724 -0.074,-0.0342 -0.557,-0.17274 -1.0736,-0.30775 z m -20.5314,-4.41104 c -2.3103,-0.27395 -2.709,-0.4966 -2.865,-1.59947 -0.4098,-2.89863 2.9358,-2.94015 5.9722,-0.0741 2.5305,2.38851 2.6011,2.35048 -3.1072,1.67359 z m 314.5466,0.13535 c -0.5905,-0.12486 -1.617,-0.34299 -2.2813,-0.48473 -0.853,-0.18202 -1.2077,-0.64329 -1.2077,-1.57052 0,-1.58994 1.3853,-2.42412 4.0257,-2.42412 3.7743,0 5.3547,2.22897 2.8328,3.99533 -1.2125,0.84931 -1.4684,0.88606 -3.3695,0.48404 z m -291.4655,-1.25876 c 0.1824,-0.29522 0.9213,-0.53677 1.642,-0.53677 0.7206,0 1.3102,0.24155 1.3102,0.53677 0,0.29523 -0.7389,0.53677 -1.642,0.53677 -0.9579,0 -1.5038,-0.2236 -1.3102,-0.53677 z M 441.869,447.73799 c -0.5219,-0.62884 -0.3402,-0.927 0.9812,-1.61031 1.7281,-0.89367 3.6056,-1.09853 3.9957,-0.436 0.1303,0.22141 0.032,0.94605 -0.2194,1.61031 -0.3504,0.92708 -0.8818,1.20773 -2.2867,1.20773 -1.0067,0 -2.1185,-0.34728 -2.4708,-0.77173 z m -6.7236,-0.94902 c -0.5829,-0.338 -1.9115,-0.79943 -2.9523,-1.02538 -1.0408,-0.22596 -3.2209,-0.88219 -4.8446,-1.45829 -1.6237,-0.5761 -4.2124,-1.17516 -5.7527,-1.33123 -1.5403,-0.15607 -3.0301,-0.42566 -3.3107,-0.59908 -0.9388,-0.58022 -18.0107,-0.70654 -20.5511,-0.15206 -4.2718,0.93237 -7.1128,-1.17405 -6.5429,-4.85117 0.1561,-1.00694 -0.06,-1.20773 -1.3003,-1.20773 -0.8181,0 -2.0521,-0.39541 -2.742,-0.87868 -1.0831,-0.75863 -1.2176,-1.20604 -0.9845,-3.27462 0.1646,-1.46042 -0.01,-2.93437 -0.4454,-3.77495 -0.5004,-0.96452 -0.5557,-1.67737 -0.1841,-2.37169 0.483,-0.90245 0.3461,-0.96785 -1.506,-0.71947 -1.1205,0.15027 -3.245,0.38546 -4.7211,0.52265 -1.4761,0.13719 -4.0811,0.41583 -5.789,0.6192 -2.6643,0.31728 -3.2083,0.22867 -3.8318,-0.62411 -0.8419,-1.15142 -0.6273,-2.00379 1.0905,-4.32988 l 1.2412,-1.68071 -2.3025,-0.64469 c -2.7291,-0.76408 -6.987,-0.12816 -10.1603,1.51745 -1.4491,0.7515 -2.4578,0.93762 -3.489,0.64377 -0.7977,-0.22734 -4.0324,-0.35484 -7.1881,-0.28334 -6.0812,0.13779 -6.4401,0.26526 -10.8092,3.83928 -1.6711,1.36703 -3.8512,1.58465 -6.012,0.60013 -1.0905,-0.49688 -1.6377,-0.49688 -2.4334,0 -0.5646,0.35258 -1.3869,0.64105 -1.8274,0.64105 -0.6595,0 -0.693,-0.23692 -0.1895,-1.34192 0.3964,-0.87018 1.0492,-1.34193 1.8569,-1.34193 0.916,0 1.3384,-0.39065 1.5963,-1.47611 0.7437,-3.13039 1.9494,-3.69084 8.7687,-4.07604 1.9617,-0.11081 3.5517,-0.46226 3.6679,-0.81072 0.1127,-0.33832 0.5397,-0.61512 0.9486,-0.61512 0.4404,0 0.6176,0.32825 0.4346,0.80516 -0.46,1.19867 1.5778,1.02227 3.1012,-0.26847 1.1723,-0.99322 1.1969,-1.1158 0.3279,-1.63698 -1.2385,-0.74278 -1.1934,-1.9466 0.099,-2.63821 1.3051,-0.69847 5.7693,-0.72897 6.1936,-0.0423 0.1746,0.28233 0.681,0.37376 1.1255,0.20319 0.4445,-0.17058 1.8257,0.0573 3.0692,0.50633 3.9871,1.43976 7.2971,2.02057 9.5041,1.66766 1.9047,-0.30457 2.1504,-0.51256 2.1504,-1.81985 0,-0.81179 -0.3857,-1.79611 -0.8572,-2.18739 -0.7833,-0.65006 -0.7806,-0.73827 0.031,-1.02295 0.4885,-0.17135 2.9877,-0.0865 5.5539,0.1886 3.3384,0.35787 5.5629,0.31483 7.8197,-0.15131 2.9377,-0.60675 8.9537,-0.49753 15.2304,0.27653 2.1297,0.26265 2.2813,0.19555 2.2813,-1.01029 0,-0.71039 0.4838,-1.72947 1.0752,-2.26463 0.9367,-0.84778 2.1629,-0.97939 9.5276,-1.02254 8.6433,-0.0506 10.3406,-0.3549 9.2579,-1.65955 -0.4318,-0.52026 -1.7864,-0.64913 -5.0822,-0.48353 -4.3415,0.21815 -4.5312,0.17778 -5.6102,-1.19398 -1.4946,-1.90007 -1.4115,-2.98723 0.4935,-6.45846 0.8857,-1.61381 1.6103,-3.11902 1.6103,-3.34493 0,-0.22592 -0.7028,-0.3076 -1.5618,-0.18153 -0.859,0.12608 -1.9678,0.002 -2.4639,-0.27558 -0.7364,-0.41211 -0.3282,-0.7765 2.2226,-1.98422 2.4513,-1.16069 3.3275,-1.35263 4.0669,-0.89092 1.4647,0.91479 3.3765,0.69656 4.4685,-0.51009 1.5386,-1.70013 3.9097,-2.52822 8.2795,-2.89149 2.2625,-0.18809 4.586,-0.71191 5.3351,-1.20274 0.7379,-0.48347 2.8905,-0.97624 4.8486,-1.1099 3.3785,-0.2306 4.5744,0.0409 7.429,1.68637 1.0119,0.58333 2.0327,0.58005 5.9044,-0.0189 4.9924,-0.77238 9.4979,-1.93013 12.3176,-3.16514 2.6957,-1.18074 8.7513,-2.4536 11.4187,-2.40016 1.3285,0.0266 3.5024,0.0707 4.8309,0.098 1.3285,0.0274 5.0725,-0.46352 8.32,-1.09072 3.2474,-0.62721 7.2329,-1.14898 8.8566,-1.15951 1.6237,-0.0105 3.9185,-0.2352 5.0994,-0.49929 1.1808,-0.26408 3.8379,-0.63329 5.9044,-0.82045 5.584,-0.50571 7.3102,-0.83764 8.5458,-1.6433 2.8439,-1.85438 9.0099,-2.13774 11.2278,-0.51597 0.8152,0.59606 0.9001,1.08083 0.5233,2.98651 -0.6226,3.14804 -2.4342,3.75657 -9.3226,3.13147 -5.0033,-0.45402 -6.4072,-0.35501 -18.489,1.30394 -3.2475,0.4459 -7.3988,0.95579 -9.2252,1.13308 -1.8263,0.17729 -4.3626,0.70638 -5.6361,1.17575 -1.4731,0.54295 -4.8539,0.94941 -9.2934,1.11731 -4.5796,0.1732 -7.3801,0.5173 -8.1479,1.00114 -0.6435,0.40547 -2.2135,0.88966 -3.489,1.07596 -3.7557,0.54857 -8.0506,1.81735 -10.639,3.14287 -1.3285,0.68035 -3.6055,1.38985 -5.0601,1.57667 -1.4545,0.18683 -3.0245,0.6757 -3.4889,1.08639 -0.83,0.73395 -3.3178,2.10018 -7.0078,3.84848 -1.028,0.48709 -3.8058,1.01687 -6.1728,1.17728 -3.3277,0.22552 -4.7879,0.5963 -6.4388,1.63491 -3.0106,1.89403 -3.8343,2.78474 -3.033,3.27994 0.353,0.21823 0.4875,0.79923 0.2988,1.29112 -0.2912,0.75868 -0.07,0.8464 1.4579,0.57828 0.9906,-0.17383 2.5905,-0.55537 3.5553,-0.84787 0.9648,-0.29251 3.5298,-0.60944 5.7,-0.7043 3.1309,-0.13685 4.4015,-0.46014 6.1525,-1.56549 1.2137,-0.76616 2.7996,-1.39302 3.5243,-1.39302 0.7247,0 1.8769,-0.21071 2.5603,-0.46825 1.8113,-0.68249 3.2812,0.0801 4.4803,2.32424 1.0454,1.95635 1.0455,1.98541 0.015,2.7445 -0.6332,0.46625 -2.3191,0.7672 -4.2977,0.7672 -1.7907,0 -4.0996,0.25976 -5.1309,0.57724 -1.0313,0.31749 -4.0491,0.55627 -6.7061,0.53064 -3.8205,-0.0369 -5.2367,0.17128 -6.771,0.99508 -1.067,0.57293 -2.8786,1.19837 -4.0257,1.38988 -1.1472,0.1915 -2.4481,0.47432 -2.8909,0.62848 -0.4428,0.15417 -3.0999,0.33242 -5.9044,0.39611 -5.9067,0.13414 -8.6881,0.90856 -9.8987,2.75607 -0.6627,1.01146 -1.3297,1.3148 -2.8908,1.3148 -1.1161,0 -3.2811,0.6238 -4.8111,1.38621 -4.1218,2.05393 -7.0908,1.05166 -7.0908,-2.3937 0,-0.95451 -0.2922,-1.05656 -2.5497,-0.89072 -1.4023,0.10303 -3.1535,0.42071 -3.8916,0.70598 -0.738,0.28526 -2.1019,0.68389 -3.0307,0.88585 -0.9289,0.20195 -2.1171,0.84043 -2.6406,1.41884 -0.9127,1.00849 -0.9094,1.08389 0.079,1.83692 0.6796,0.51808 1.8805,0.71342 3.5292,0.57411 2.1623,-0.1827 2.5378,-0.0629 2.7868,0.88894 0.2685,1.02665 0.5496,1.07558 4.2106,0.73276 5.0758,-0.47529 9.7516,-1.32221 12.7795,-2.31474 1.3285,-0.43547 3.9855,-1.00474 5.9045,-1.26506 1.9189,-0.26031 4.5685,-0.62868 5.888,-0.81859 1.3195,-0.18991 3.2947,-0.91071 4.3894,-1.60179 1.767,-1.11541 2.7031,-1.26737 8.3364,-1.35329 4.7727,-0.0728 7.0539,-0.35642 9.2018,-1.14406 1.5707,-0.576 3.319,-0.92615 3.8851,-0.7781 0.5859,0.1532 1.6624,-0.2288 2.4987,-0.88663 1.401,-1.10208 2.0563,-1.16014 14.0966,-1.24902 8.8345,-0.0652 14.2395,-0.36002 17.9949,-0.98148 4.8753,-0.80678 7.4793,-1.1912 14.7612,-2.17912 3.0747,-0.41715 4.9868,1.05989 4.727,3.65144 -0.2679,2.67265 -1.0499,2.83195 -10.455,2.12976 -6.0262,-0.44992 -9.5888,-0.47385 -12.2538,-0.0823 -6.7067,0.98532 -12.1423,1.19441 -14.2936,0.54983 -1.635,-0.48984 -2.6865,-0.45109 -5.1614,0.19022 -1.7095,0.44297 -3.6423,0.66571 -4.2952,0.49498 -0.7146,-0.18688 -1.9205,0.12235 -3.03,0.77701 -3.8948,2.29793 -19.6987,7.15561 -23.7761,7.30805 -1.2573,0.047 -2.6915,0.48615 -3.2559,0.99686 -1.3437,1.21604 -4.0361,1.70945 -5.3859,0.98704 -0.8118,-0.43443 -1.6847,-0.38964 -3.4204,0.1755 -3.9071,1.27212 -8.6255,1.91142 -11.5449,1.56425 -1.5253,-0.18139 -3.4576,-0.15699 -4.2942,0.0542 l -1.521,0.38401 1.342,0.68829 c 0.738,0.37857 2.2392,0.85024 3.3359,1.04816 2.4186,0.43647 2.9555,1.14815 1.8159,2.40725 -1.4205,1.56969 -1.0886,3.09834 0.7526,3.46659 1.4748,0.29496 2.3258,1.42244 1.0736,1.42244 -1.3494,0 -0.2596,0.96892 2.818,2.50542 4.971,2.48173 6.2851,2.7834 15.9689,3.66593 4.8711,0.44394 9.8228,1.06138 11.0038,1.3721 1.1808,0.31072 4.0396,0.7794 6.3527,1.04151 2.3131,0.2621 4.789,0.85874 5.5019,1.32586 3.3951,2.22459 -0.7592,6.00305 -4.3262,3.93473 z M 81.1326,443.67879 c 0,-0.29522 0.2415,-0.53677 0.5367,-0.53677 0.2953,0 0.5368,0.24155 0.5368,0.53677 0,0.29523 -0.2415,0.53677 -0.5368,0.53677 -0.2952,0 -0.5367,-0.24154 -0.5367,-0.53677 z m 62.2652,-1.61631 c 0,-0.29192 0.6038,-0.53076 1.3419,-0.53076 0.7381,0 1.3419,0.18886 1.3419,0.41969 0,0.23083 -0.6038,0.46968 -1.3419,0.53076 -0.7381,0.0611 -1.3419,-0.12778 -1.3419,-0.41969 z M 438.989,439.3225 c -0.5354,-0.31145 -3.7963,-0.69752 -7.2464,-0.85794 -6.1614,-0.28648 -9.7618,-1.13388 -9.7618,-2.29754 0,-0.3237 0.6239,-1.21246 1.3865,-1.97502 1.3019,-1.30197 1.6045,-1.36513 4.9651,-1.03639 6.2489,0.61128 12.6734,1.65426 13.5902,2.20627 1.1754,0.70773 1.4407,2.56721 0.5239,3.67192 -0.8393,1.01125 -2.0425,1.11172 -3.4575,0.2887 z m -13.5215,-8.52995 c -0.1838,-0.29731 0.054,-0.68947 0.5282,-0.87147 1.0277,-0.39437 1.6005,0.0402 1.1065,0.83955 -0.4457,0.72119 -1.1996,0.73592 -1.6347,0.0319 z m -106.9489,-3.57883 c -1.4099,-0.98356 -1.5638,-2.07031 -0.3587,-2.53279 1.3618,-0.52253 2.393,-0.38108 3.2151,0.441 0.9628,0.96277 0.9574,1.11298 -0.077,2.14707 -1.0223,1.02234 -1.2411,1.01799 -2.7797,-0.0553 z M 126.2938,413.00467 c -1.52,-0.56224 -1.8041,-1.33428 -0.8444,-2.29399 1.751,-1.75096 5.932,-0.53698 5.5191,1.60251 -0.2129,1.10363 -2.6044,1.45736 -4.6747,0.69148 z m 17.3407,-1.24666 c -0.573,-0.43344 -0.7861,-0.79576 -0.4735,-0.80515 0.3126,-0.009 1.0372,0.33757 1.6103,0.77102 0.5731,0.43343 0.7862,0.79575 0.4736,0.80515 -0.3126,0.009 -1.0373,-0.33757 -1.6104,-0.77102 z m 119.7282,-2.9741 c -0.5864,-0.94872 0.3056,-2.67904 1.381,-2.67904 1.2967,0 1.4534,2.40934 0.1883,2.8948 -1.1144,0.42763 -1.1771,0.41901 -1.5693,-0.21576 z m 10.2582,-4.69193 c 0.1756,-1.10708 0.5459,-2.43702 0.8229,-2.95541 0.5884,-1.10145 -0.4658,-5.23031 -1.3355,-5.23031 -0.3049,0 -0.088,-0.3409 0.4816,-0.75755 0.5698,-0.41666 1.2634,-0.61703 1.5414,-0.44526 0.2778,0.17176 1.6694,0.25917 3.0923,0.19425 2.7349,-0.1248 3.4434,0.70314 1.7819,2.0821 -0.4429,0.36752 -0.8052,0.87809 -0.8052,1.13459 0,0.25651 -0.6643,1.13273 -1.4761,1.94716 -0.8119,0.81443 -1.5541,1.93411 -1.6495,2.48818 -0.3584,2.08279 -1.1691,3.55514 -1.9575,3.55514 -0.6413,0 -0.7473,-0.43005 -0.4963,-2.01289 z m 80.4345,0.91263 c -1.1271,-1.24543 -0.5209,-3.43227 1.1643,-4.20008 1.6086,-0.73295 3.9396,-0.76975 5.0315,-0.0794 0.7031,0.44444 0.6764,0.74519 -0.2126,2.39597 -1.4119,2.6216 -4.4498,3.57797 -5.9832,1.88355 z m -37.3344,-1.91595 c -0.4707,-0.56723 -0.5187,-1.23069 -0.1623,-2.24414 0.5968,-1.69704 2.1819,-2.21569 2.4722,-0.80894 0.5444,2.63808 -0.981,4.65429 -2.3099,3.05308 z m 60.5738,0.0217 c -0.6264,-0.63025 -0.4742,-2.3818 0.2684,-3.08771 0.9547,-0.90755 5.2411,-1.93439 6.3292,-1.51617 1.2113,0.46559 0.5229,2.38556 -1.2784,3.56586 -1.5279,1.00108 -4.734,1.62676 -5.3192,1.03802 z m -135.1316,-2.37317 c 0,-0.29522 0.2416,-0.53676 0.5368,-0.53676 0.2953,0 0.5368,0.24154 0.5368,0.53676 0,0.29523 -0.2415,0.53678 -0.5368,0.53678 -0.2952,0 -0.5368,-0.24155 -0.5368,-0.53678 z m 24.9082,-1.15705 c -0.3025,-0.48944 1.2064,-2.00845 2.0328,-2.04649 0.7355,-0.0339 1.0792,1.16303 0.5003,1.74193 -0.7923,0.79229 -2.1321,0.95338 -2.5331,0.30456 z m -149.8411,-0.27198 c -0.3691,-0.1489 -0.671,-0.70785 -0.671,-1.24211 0,-1.00586 1.0056,-1.623 2.6446,-1.623 1.1869,0 2.9482,1.88538 2.4757,2.65002 -0.3563,0.57648 -3.2116,0.71452 -4.4493,0.21509 z m 251.3414,-0.18228 c -0.1828,-0.29577 0.3464,-0.79496 1.176,-1.10929 0.8297,-0.31433 1.9915,-1.01147 2.582,-1.5492 0.7387,-0.67272 2.3293,-1.08605 5.0993,-1.32513 5.7967,-0.50032 7.2715,-0.82584 10.2491,-2.26229 2.6452,-1.27611 4.9052,-1.29519 5.6761,-0.0479 0.5463,0.88398 -1.9086,2.53709 -3.7732,2.54075 -0.9267,0.001 -2.3477,0.34902 -3.1577,0.77156 -0.81,0.42254 -2.38,0.76065 -3.489,0.75136 -1.109,-0.009 -3.9191,0.60969 -6.2448,1.37552 -4.3948,1.44718 -7.5465,1.779 -8.1178,0.85464 z m -106.4124,-3.89814 c -2.73,-1.54575 -4.9643,-3.10748 -4.9651,-3.47051 0,-0.36303 -0.9595,-1.14884 -2.1305,-1.74625 -2.4951,-1.27291 -3.7543,-3.10977 -2.6231,-3.82658 1.1516,-0.72973 1.4426,-0.60208 3.8075,1.67035 1.229,1.18089 2.5481,2.14707 2.9315,2.14707 0.3833,0 0.697,0.2079 0.697,0.46198 0,0.2541 1.4509,1.23527 3.2241,2.18039 1.9744,1.05235 3.5348,2.31933 4.0257,3.26874 1.4881,2.87759 1.2729,2.84791 -4.9671,-0.68519 z m 22.7174,-13.74902 c -0.1603,-0.25936 0.067,-1.18985 0.5048,-2.06774 0.6399,-1.2826 0.6756,-1.95446 0.1819,-3.42 -0.3379,-1.00311 -0.8749,-2.15515 -1.1932,-2.56008 -0.5178,-0.65867 -1.3147,-2.0902 -4.4316,-7.96047 -0.7508,-1.41423 -0.7903,-1.86593 -0.2229,-2.54965 1.8546,-2.23473 3.7766,0.18047 3.7808,4.75104 0,1.27541 0.4676,2.96486 1.109,4.017 1.0983,1.80158 1.132,1.81357 4.2921,1.52701 2.871,-0.26032 3.1852,-0.18839 3.1852,0.72928 0,0.55995 -0.4831,1.31978 -1.0736,1.68852 -0.5904,0.36874 -1.0735,0.97466 -1.0735,1.34648 0,0.37181 -0.1952,0.67603 -0.4338,0.67603 -0.2386,0 -1.1444,0.96047 -2.0129,2.13438 -1.6229,2.19368 -2.1067,2.50631 -2.6123,1.6882 z m -31.4865,-0.92477 c -0.3869,-0.46626 -2.2863,-1.96047 -4.2208,-3.32046 -1.9344,-1.36 -4.3111,-3.15028 -5.2817,-3.97841 -0.9704,-0.82813 -2.6211,-1.86363 -3.6681,-2.30111 -1.0471,-0.43749 -2.566,-1.46354 -3.3755,-2.28013 -2.345,-2.36571 -5.5366,-5.15215 -7.4774,-6.52829 -1.765,-1.25145 -1.777,-1.28707 -0.767,-2.29698 1.3391,-1.33917 2.9731,-0.74616 6.0753,2.20482 1.2624,1.20094 2.5118,2.18353 2.7764,2.18353 0.2646,0 0.3558,0.20259 0.2028,0.45021 -0.153,0.24761 0.7224,1.15341 1.9454,2.01289 1.223,0.85946 3.1968,2.59789 4.3862,3.86317 1.1895,1.26527 3.2351,2.83532 4.5458,3.489 2.5333,1.26332 5.4367,4.00554 6.0788,5.74132 0.5009,1.35402 -0.3087,1.85861 -1.2202,0.76044 z m 2.9061,-2.85762 c -6.1367,-4.71028 -9.457,-9.2063 -6.7525,-9.14342 0.5167,0.012 2.6302,1.58129 4.6967,3.48729 2.0666,1.906 4.0173,3.46623 4.3349,3.46716 0.3175,9.8e-4 1.1548,0.61642 1.8606,1.36775 0.9899,1.05368 1.156,1.56801 0.7262,2.24932 -0.8852,1.40346 -1.3575,1.26486 -4.8659,-1.4281 z m 64.868,-0.30384 c 0.095,-1.13786 0.4743,-2.16802 0.8433,-2.28924 0.9954,-0.32699 0.8475,2.81175 -0.1724,3.65814 -0.7454,0.61866 -0.8233,0.4597 -0.6709,-1.3689 z m -149.8546,-3.4363 c 0,-0.32682 -0.4535,-0.5942 -1.0078,-0.5942 -0.5543,0 -1.3208,-0.37722 -1.7034,-0.83825 -0.394,-0.47464 -1.412,-0.8003 -2.3471,-0.75077 -2.5855,0.13697 -2.8789,0.0395 -2.7993,-0.92924 0.041,-0.49937 -0.414,-1.16362 -1.0111,-1.47612 -0.6195,-0.32421 -1.0055,-0.97376 -0.8989,-1.51284 0.1363,-0.69021 -0.2632,-1.03465 -1.4831,-1.27864 -1.5344,-0.30687 -1.6026,-0.40816 -0.8412,-1.24945 0.7492,-0.82783 0.7381,-0.99436 -0.1152,-1.73882 -0.519,-0.45282 -1.4816,-1.10142 -2.1391,-1.44135 -1.1908,-0.61566 -1.1914,-0.62214 -0.1342,-1.67928 1.5537,-1.55375 1.3194,-2.88505 -0.6833,-3.88175 -1.4845,-0.73884 -1.5683,-0.87332 -0.5619,-0.90254 0.8964,-0.026 1.3158,-0.51728 1.7338,-2.03105 0.3601,-1.30413 0.3688,-2.1792 0.025,-2.52281 -0.912,-0.91202 -0.5726,-1.51267 0.6817,-1.20629 1.6922,0.41336 3.1126,-0.76785 2.7215,-2.26331 -0.2644,-1.0111 -0.1133,-1.18078 0.9651,-1.08388 0.7031,0.0632 1.7616,0.0736 2.3521,0.0232 0.8989,-0.0768 0.9426,-0.17762 0.2683,-0.62025 -1.5103,-0.99149 0.5521,-1.6122 4.16,-1.252 3.3346,0.33292 3.3548,0.3266 3.3548,-1.04944 0,-1.70623 0.7214,-2.21075 2.1034,-1.4711 0.6985,0.37384 1.1639,0.38218 1.3847,0.0248 0.5854,-0.94729 1.7435,-0.57708 2.0942,0.66951 0.3317,1.17898 0.3586,1.1831 1.1306,0.17337 0.7664,-1.00252 1.607,-0.81581 1.607,0.35696 0,0.31628 0.4543,0.64173 1.0095,0.72322 0.5552,0.0815 1.2678,0.40645 1.5835,0.72213 0.3156,0.31568 1.468,0.57397 2.5607,0.57397 1.7041,0 2.1454,0.26906 3.1026,1.89149 1.4119,2.3928 2.2788,2.71509 4.4244,1.64474 0.9449,-0.47138 1.8599,-0.70215 2.0334,-0.51284 0.1735,0.18931 0.01,0.45347 -0.3651,0.58702 -1.108,0.39533 -2.3348,1.83495 -2.1225,2.49055 0.1085,0.33476 1.0251,1.00557 2.0369,1.49069 1.0118,0.48512 1.7189,1.08184 1.5713,1.32607 -0.1476,0.24422 0.3355,0.74954 1.0735,1.12294 0.7381,0.37339 1.1608,0.71265 0.9394,0.7539 -0.2214,0.0413 -0.6441,0.1354 -0.9394,0.2092 -0.2952,0.0738 -0.8991,0.16439 -1.3419,0.20129 -1.1753,0.098 -0.984,1.84425 0.2892,2.63938 0.6019,0.3759 0.9603,0.9004 0.7964,1.16557 -0.1639,0.26517 -0.053,0.63384 0.2476,0.81927 0.7718,0.47705 0.677,2.18033 -0.1602,2.8751 -0.3881,0.32213 -1.6563,0.65862 -2.818,0.74777 -1.4337,0.11002 -2.1124,0.41724 -2.1124,0.95617 0,1.12334 -0.8075,1.58152 -2.8042,1.591 -1.3453,0.006 -1.8968,0.33699 -2.476,1.48433 -0.41,0.81187 -0.6416,1.76579 -0.5149,2.11983 0.17,0.47525 -0.207,0.51828 -1.4409,0.16441 -1.4713,-0.42198 -1.7406,-0.32702 -2.2514,0.79406 -0.4944,1.08508 -0.7312,1.17981 -1.6014,0.64073 -0.8069,-0.49986 -1.1179,-0.47739 -1.4816,0.10712 -0.2532,0.40685 -0.7022,0.59031 -0.9977,0.40767 -0.5516,-0.34088 -4.4813,0.29155 -6.1581,0.99106 -0.5649,0.23565 -0.9394,0.155 -0.9394,-0.20234 z m 177.4022,-3.25045 c 0.5904,-0.24263 1.6923,-1.13312 2.4487,-1.97887 1.9364,-2.16527 3.9891,-3.61619 8.0183,-5.66737 1.7168,-0.87402 6.3145,-4.12034 6.5387,-4.6168 0.2408,-0.53342 5.7881,-3.21134 7.4929,-3.61717 0.8273,-0.19694 1.5729,-0.086 1.7908,0.26643 0.6925,1.1206 -1.2131,2.96462 -4.3672,4.22597 -1.7244,0.68962 -3.4976,1.47338 -3.9405,1.74168 -0.4428,0.26831 -3.0998,1.67915 -5.9044,3.13522 -2.8046,1.45606 -6.273,3.63124 -7.7074,4.83373 -1.669,1.39907 -3.1186,2.1741 -4.0258,2.15233 -1.2623,-0.0303 -1.3,-0.0824 -0.3441,-0.47515 z m -38.5775,-10.3604 c -0.5172,-1.93026 -0.3878,-8.8969 0.1717,-9.24273 0.935,-0.57783 3.7839,-6.7373 3.8012,-8.21831 0.019,-1.59824 1.09,-3.33876 2.055,-3.33876 0.7167,0 0.748,1.6351 0.123,6.44123 -0.3198,2.45967 -0.9721,4.32105 -2.2111,6.30927 -1.1394,1.8284 -1.7323,3.43302 -1.6858,4.56254 0.163,3.96503 -1.455,6.46806 -2.254,3.48676 z m -65.7677,-7.95189 c -1.8623,-0.83375 -4.3505,-3.28942 -4.3505,-4.29352 0,-1.21267 -4.1185,-7.10325 -5.4465,-7.78998 -0.8424,-0.43559 -1.5315,-0.99801 -1.5315,-1.24984 0,-0.25182 -0.7309,-0.76061 -1.6242,-1.13064 -1.5262,-0.63214 -4.3309,-3.74926 -3.3775,-3.75362 0.2415,-9.8e-4 -0.349,-0.48254 -1.3123,-1.06986 -0.9633,-0.58732 -2.1568,-1.91792 -2.6522,-2.95688 -0.6024,-1.26322 -1.8828,-2.46476 -3.8649,-3.62687 -1.6302,-0.95581 -3.9564,-2.3417 -5.1693,-3.07976 -1.2128,-0.73806 -3.0023,-1.82502 -3.9765,-2.41546 -0.9742,-0.59045 -3.1515,-2.07031 -4.8383,-3.28859 -1.6869,-1.21827 -3.6503,-2.51739 -4.3631,-2.88693 -0.7129,-0.36954 -1.7793,-1.22391 -2.3698,-1.8986 -0.5904,-0.6747 -3.3358,-2.3949 -6.1007,-3.82268 -3.6621,-1.89104 -6.2128,-3.72409 -9.3935,-6.75047 -2.4014,-2.28497 -5.0441,-4.70043 -5.8726,-5.36768 -0.8285,-0.66726 -2.2778,-1.84177 -3.2206,-2.61004 -0.9429,-0.76827 -2.5935,-1.976 -3.6682,-2.68384 -1.8474,-1.2168 -8.2427,-6.54712 -11.2208,-9.35229 -0.7512,-0.70757 -2.1307,-1.83934 -3.0655,-2.51505 -0.9349,-0.67572 -3.1414,-2.36089 -4.9033,-3.74484 -1.762,-1.38395 -3.8849,-2.86932 -4.7176,-3.30084 -0.8327,-0.43152 -2.1513,-1.47311 -2.9302,-2.31466 -2.6977,-2.91471 -7.7174,-7.52406 -9.5876,-8.80377 -1.0333,-0.70704 -2.1203,-1.47681 -2.4155,-1.7106 -0.2952,-0.23378 -1.6479,-1.25034 -3.006,-2.25904 -2.7641,-2.05285 -4.2187,-4.72554 -3.3368,-6.13092 1.4317,-2.28182 6.3589,-2.05911 8.7048,0.39345 0.7675,0.80232 2.6595,2.77731 4.2045,4.38887 1.545,1.61155 3.7189,3.65055 4.8309,4.5311 1.112,0.88055 4.104,3.65833 6.6489,6.17284 6.8705,6.78856 7.5921,7.40448 9.1247,7.78917 0.7721,0.19379 1.9151,1.04379 2.5399,1.88888 0.6248,0.84509 1.7234,1.85351 2.4412,2.24093 3.4881,1.88242 10.7047,7.58135 14.6428,11.56331 2.4146,2.44145 4.6326,4.439 4.9289,4.439 0.2963,0 0.6776,0.43712 0.8471,0.9714 0.4864,1.53224 4.6488,5.46457 6.1689,5.82786 1.9974,0.47735 3.8384,1.48924 5.6725,3.11793 0.8856,0.78647 2.8196,2.21786 4.2976,3.18086 1.478,0.963 3.4104,2.52619 4.2941,3.47376 0.8838,0.94756 3.2373,2.60907 5.2301,3.69223 1.9927,1.08316 3.6232,2.13442 3.6232,2.33613 0,0.2017 1.6304,1.01761 3.6232,1.81312 2.3904,0.95427 4.8214,2.50918 7.1448,4.57 1.9369,1.71798 4.4162,3.49734 5.5095,3.95414 1.0932,0.4568 2.1267,1.19262 2.2965,1.63519 0.1698,0.44256 1.1467,1.29907 2.1709,1.90336 1.0242,0.60428 1.7147,1.33729 1.5345,1.62889 -0.1877,0.30379 0.028,0.39369 0.5054,0.21053 0.4581,-0.17582 0.833,-0.0523 0.833,0.27453 0,0.32681 0.3766,0.5942 0.8369,0.5942 0.4602,0 0.7047,0.21363 0.5434,0.47472 -0.3057,0.49456 3.6301,1.67235 5.5884,1.67235 0.6191,0 2.0726,0.48309 3.2299,1.07354 1.1574,0.59045 2.5932,1.07354 3.1908,1.07354 0.5975,0 1.8658,0.69634 2.8183,1.54742 1.5779,1.40985 1.7497,1.87513 1.9326,5.2335 0.1977,3.63206 0.1724,3.71318 -1.7241,5.53655 -2.4491,2.35443 -6.7051,3.0427 -9.9186,1.60397 z M 360.4728,341.961 c -0.5338,-2.12681 0.173,-3.96933 1.6665,-4.34416 0.7335,-0.18411 1.3337,-0.56437 1.3337,-0.84501 0,-0.28064 0.2416,-0.36097 0.5368,-0.17851 0.2952,0.18245 0.5368,0.57328 0.5368,0.8685 0,0.29523 -0.2577,0.37751 -0.5727,0.18284 -0.315,-0.19465 -0.5184,-0.0277 -0.4521,0.37091 0.1152,0.69305 -0.082,1.39 -1.1545,4.07963 -0.6351,1.59288 -1.476,1.53333 -1.8945,-0.1342 z m 4.2305,-5.36584 c -1.4854,-1.04815 -1.0899,-2.20383 0.8897,-2.59974 1.0322,-0.20646 1.6834,-0.78109 2.0451,-1.80474 0.2918,-0.826 1.4464,-2.4672 2.5657,-3.64711 1.1194,-1.17991 3.4885,-3.8339 5.2648,-5.89776 1.7764,-2.06386 3.666,-4.22076 4.1992,-4.79313 0.5333,-0.57237 1.0971,-1.44251 1.2529,-1.93365 0.3549,-1.11795 2.6486,-2.38774 3.4351,-1.90164 0.3234,0.19986 0.588,0.7256 0.588,1.16833 0,1.0914 -3.2237,5.03615 -4.1156,5.03615 -0.3934,0 -0.7154,0.23057 -0.7154,0.51239 0,0.28183 -1.4764,1.70707 -3.281,3.16721 -2.5644,2.07496 -3.546,3.30669 -4.4941,5.63944 -0.6671,1.64155 -1.1103,3.08731 -0.9848,3.21279 0.1255,0.12549 -0.6904,0.79257 -1.813,1.48241 -1.1226,0.68983 -2.4034,1.69101 -2.8463,2.22483 -0.7378,0.88953 -0.9041,0.90074 -1.9903,0.13422 z M 183.3289,326.26052 c -1.6535,-2.29142 -0.5668,-4.57018 1.2927,-2.71069 0.7184,0.71839 0.891,4.1868 0.2083,4.1868 -0.2397,0 -0.9151,-0.66425 -1.501,-1.47611 z"
     id="path2987"
     style="fill:#000000" />
</svg>
