<svg role="img" viewBox="0 0 24 24" xmlns="http://www.w3.org/2000/svg"><title>Vercel</title><path d="M24 22.525H0l12-21.05 12 21.05z"/></svg>

<!-- Book icon -->
<svg xmlns="http://www.w3.org/2000/svg" aria-hidden="true" role="img" width="1em" height="1em" preserveAspectRatio="xMidYMid meet" viewBox="0 0 24 24"><path fill="none" stroke="currentColor" stroke-linecap="round" stroke-linejoin="round" stroke-width="2" d="M2 6s1.5-2 5-2s5 2 5 2v14s-1.5-1-5-1s-5 1-5 1V6Zm10 0s1.5-2 5-2s5 2 5 2v14s-1.5-1-5-1s-5 1-5 1V6Z"/></svg>

<!-- Screen icon -->
<svg xmlns="http://www.w3.org/2000/svg" aria-hidden="true" role="img" width="1em" height="1em" preserveAspectRatio="xMidYMid meet" viewBox="0 0 24 24"><path fill="currentColor" d="M20 18c1.1 0 1.99-.9 1.99-2L22 6c0-1.1-.9-2-2-2H4c-1.1 0-2 .9-2 2v10c0 1.1.9 2 2 2H1c-.55 0-1 .45-1 1s.45 1 1 1h22c.55 0 1-.45 1-1s-.45-1-1-1h-3zM5 6h14c.55 0 1 .45 1 1v8c0 .55-.45 1-1 1H5c-.55 0-1-.45-1-1V7c0-.55.45-1 1-1z"/></svg>

<!-- chair icon -->
<svg xmlns="http://www.w3.org/2000/svg" aria-hidden="true" role="img" width="1em" height="1em" preserveAspectRatio="xMidYMid meet" viewBox="0 0 24 24"><path fill="currentColor" d="M20 8V6c0-1.65-1.35-3-3-3H7C5.35 3 4 4.35 4 6v2c-1.65 0-3 1.35-3 3v5c0 1.65 1.35 3 3 3v1c0 .55.45 1 1 1s1-.45 1-1v-1h12v1c0 .55.45 1 1 1s1-.45 1-1v-1c1.65 0 3-1.35 3-3v-5c0-1.65-1.35-3-3-3zM6 6c0-.55.45-1 1-1h10c.55 0 1 .45 1 1v2.78c-.61.55-1 1.34-1 2.22v2H7v-2c0-.88-.39-1.67-1-2.22V6zm15 10c0 .55-.45 1-1 1H4c-.55 0-1-.45-1-1v-5c0-.55.45-1 1-1s1 .45 1 1v4h14v-4c0-.55.45-1 1-1s1 .45 1 1v5z"/></svg>

<!-- scooter icon -->
<svg xmlns="http://www.w3.org/2000/svg" aria-hidden="true" role="img" width="1em" height="1em" preserveAspectRatio="xMidYMid meet" viewBox="0 0 24 24"><path fill="currentColor" d="M7.82 19H15v-1c0-2.21 1.79-4 4-4h.74l-1.9-8.44A2.009 2.009 0 0 0 15.89 4H12v2h3.89l1.4 6.25h-.01A6.008 6.008 0 0 0 13.09 17H7.82a2.996 2.996 0 0 0-3.42-1.94c-1.18.23-2.13 1.2-2.35 2.38A3.002 3.002 0 0 0 5 21c1.3 0 2.4-.84 2.82-2M5 19c-.55 0-1-.45-1-1s.45-1 1-1s1 .45 1 1s-.45 1-1 1m14-4c-1.66 0-3 1.34-3 3s1.34 3 3 3s3-1.34 3-3s-1.34-3-3-3m0 4c-.55 0-1-.45-1-1s.45-1 1-1s1 .45 1 1s-.45 1-1 1Z"/></svg>
